<svg xmlns="http://www.w3.org/2000/svg" fill="none" viewBox="0 0 24 24" id="Content-Copy--Streamline-Outlined-Material" height="24" width="24">
  <desc>
    Content Copy Streamline Icon: https://streamlinehq.com
  </desc>
  <path fill="#000000" d="M7.5 19c-0.4 0 -0.75 -0.15 -1.05 -0.45 -0.3 -0.3 -0.45 -0.65 -0.45 -1.05V3.5c0 -0.4 0.15 -0.75 0.45 -1.05 0.3 -0.3 0.65 -0.45 1.05 -0.45h11c0.4 0 0.75 0.15 1.05 0.45 0.3 0.3 0.45 0.65 0.45 1.05v14c0 0.4 -0.15 0.75 -0.45 1.05 -0.3 0.3 -0.65 0.45 -1.05 0.45H7.5Zm0 -1.5h11V3.5H7.5v14Zm-3 4.5c-0.4 0 -0.75 -0.15 -1.05 -0.45 -0.3 -0.3 -0.45 -0.65 -0.45 -1.05V5h1.5v15.5h12.5v1.5H4.5Z" stroke-width="0.5"></path>
</svg>