<svg xmlns="http://www.w3.org/2000/svg" viewBox="0 0 16 16" id="Repeat-One-Line--Streamline-Mingcute" height="16" width="16">
  <desc>
    Repeat One Line Streamline Icon: https://streamlinehq.com
  </desc>
  <g fill="none" fill-rule="nonzero">
    <path d="M0 0v16h16V0H0Zm7.604666666666667 15.505333333333333 0.007333333333333332 0.0013333333333333333 0.047333333333333324 0.023333333333333334 0.013333333333333332 0.0026666666666666666 0.009333333333333332 -0.0026666666666666666 0.047333333333333324 -0.023999999999999997c0.006666666666666666 -0.002 0.012666666666666666 0 0.016 0.004l0.0026666666666666666 0.006666666666666666 0.011333333333333334 0.2853333333333333 -0.003333333333333333 0.013333333333333332 -0.006666666666666666 0.008666666666666666 -0.06933333333333333 0.049333333333333326 -0.009999999999999998 0.0026666666666666666 -0.008 -0.0026666666666666666 -0.06933333333333333 -0.049333333333333326 -0.008 -0.010666666666666666 -0.0026666666666666666 -0.011333333333333334 0.011333333333333334 -0.2846666666666666c0.0013333333333333333 -0.006666666666666666 0.005999999999999999 -0.011333333333333334 0.010666666666666666 -0.011999999999999999Zm-0.17666666666666667 -0.07533333333333334 0.009333333333333332 0.0013333333333333333 0.12266666666666666 0.062 0.006666666666666666 0.006666666666666666 0.002 0.007333333333333332 -0.011999999999999999 0.2866666666666666 -0.003333333333333333 0.008 -0.005333333333333333 0.005333333333333333 -0.134 0.06133333333333333c-0.008 0.0026666666666666666 -0.015333333333333332 0 -0.019333333333333334 -0.005333333333333333l-0.0026666666666666666 -0.009333333333333332 0.02266666666666667 -0.4093333333333333c0.002 -0.008 0.006666666666666666 -0.013333333333333332 0.013333333333333332 -0.014666666666666665Zm0.4766666666666666 0.0013333333333333333a0.015333333333333332 0.015333333333333332 0 0 1 0.018 0.004l0.004 0.009333333333333332 0.02266666666666667 0.4093333333333333c0 0.008 -0.004666666666666666 0.013333333333333332 -0.011333333333333334 0.016l-0.009999999999999998 -0.0013333333333333333 -0.134 -0.062 -0.006666666666666666 -0.005333333333333333 -0.002 -0.007333333333333332 -0.011999999999999999 -0.2866666666666666 0.002 -0.008 0.006666666666666666 -0.006666666666666666 0.12266666666666666 -0.06133333333333333Z" stroke-width="0.6667"></path>
    <path fill="#000000" d="M10.631333333333332 2.0439999999999996c0.018 -0.23066666666666663 0.23466666666666663 -0.37133333333333335 0.42066666666666663 -0.2733333333333333l0.204 0.10933333333333334 0.24 0.13533333333333333 0.132 0.078 0.2866666666666666 0.17533333333333334 0.15266666666666667 0.09799999999999999 0.30866666666666664 0.20666666666666667 0.13999999999999999 0.09799999999999999 0.2513333333333333 0.182 0.21 0.15999999999999998 0.08866666666666667 0.06933333333333333c0.15733333333333333 0.12533333333333332 0.15 0.3773333333333333 -0.015333333333333332 0.508l-0.18666666666666668 0.14466666666666667 -0.22666666666666668 0.16799999999999998 -0.26666666666666666 0.18799999999999997 -0.304 0.2033333333333333 -0.308 0.19399999999999998 -0.2773333333333333 0.16599999999999998 -0.24333333333333332 0.13666666666666666 -0.20466666666666666 0.11c-0.18333333333333335 0.09533333333333333 -0.3813333333333333 -0.023999999999999997 -0.3986666666666666 -0.24l-0.016666666666666666 -0.2313333333333333 -0.016 -0.2766666666666666 -0.006666666666666666 -0.15333333333333332H4.666666666666666a1.3333333333333333 1.3333333333333333 0 0 0 -1.33 1.2333333333333334L3.333333333333333 5.333333333333333v5.333333333333333a1.3333333333333333 1.3333333333333333 0 0 0 1.2333333333333334 1.33L4.666666666666666 12h6.666666666666666a1.3333333333333333 1.3333333333333333 0 0 0 1.33 -1.2333333333333334L12.666666666666666 10.666666666666666v-3.333333333333333a0.6666666666666666 0.6666666666666666 0 0 1 1.3286666666666667 -0.078L14 7.333333333333333v3.333333333333333a2.6666666666666665 2.6666666666666665 0 0 1 -2.533333333333333 2.663333333333333L11.333333333333332 13.333333333333332H4.666666666666666a2.6666666666666665 2.6666666666666665 0 0 1 -2.663333333333333 -2.533333333333333L2 10.666666666666666V5.333333333333333a2.6666666666666665 2.6666666666666665 0 0 1 2.533333333333333 -2.663333333333333L4.666666666666666 2.6666666666666665h5.9286666666666665l0.013333333333333332 -0.2766666666666666 0.014666666666666665 -0.24 0.008 -0.106ZM8.666666666666666 6.679333333333333V10a0.6666666666666666 0.6666666666666666 0 1 1 -1.3333333333333333 0v-2.0893333333333333a0.6666666666666666 0.6666666666666666 0 0 1 -0.7033333333333333 -1.132l0.99 -0.6599999999999999a0.6733333333333333 0.6733333333333333 0 0 1 1.0466666666666666 0.5599999999999999Z" stroke-width="0.6667"></path>
  </g>
</svg>