<?xml version="1.0" encoding="UTF-8"?>
<svg id="_레이어_2" data-name="레이어 2" xmlns="http://www.w3.org/2000/svg" viewBox="0 0 162.05 36.76">
  <g id="_레이어_1-2" data-name="레이어 1">
    <path fill="currentColor" d="M32.51,35.15c-1.93,0-3.5-1.57-3.5-3.5V12.19c-2.93,1.65-6.77,3.12-11.18,3.17-3.79.04-7.39-.95-10.83-2.94v19.23c0,1.93-1.57,3.5-3.5,3.5s-3.5-1.57-3.5-3.5V5.26c0-1.42.85-2.69,2.16-3.23,1.31-.54,2.81-.24,3.82.76,3.69,3.7,7.6,5.58,11.63,5.58.03,0,.06,0,.09,0,6.89-.05,12.23-5.48,12.28-5.53.99-1.02,2.51-1.35,3.83-.81,1.32.54,2.19,1.81,2.19,3.24v26.39c0,1.93-1.57,3.5-3.5,3.5Z"/>
    <path fill="currentColor" d="M60.92,36.76c-10.13,0-18.38-8.24-18.38-18.38S50.79,0,60.92,0s18.38,8.25,18.38,18.38-8.24,18.38-18.38,18.38ZM60.92,7c-6.27,0-11.38,5.1-11.38,11.38s5.1,11.38,11.38,11.38,11.38-5.1,11.38-11.38-5.1-11.38-11.38-11.38Z"/>
    <path fill="currentColor" d="M143.67,36.76c-10.13,0-18.38-8.24-18.38-18.38S133.53,0,143.67,0s18.38,8.25,18.38,18.38-8.24,18.38-18.38,18.38ZM143.67,7c-6.27,0-11.38,5.1-11.38,11.38s5.1,11.38,11.38,11.38,11.38-5.1,11.38-11.38-5.1-11.38-11.38-11.38Z"/>
    <path fill="currentColor" d="M116.52,35.15c-1.93,0-3.5-1.57-3.5-3.5v-13.92c0-5.91-4.81-10.72-10.72-10.72s-10.72,4.81-10.72,10.72v13.92c0,1.93-1.57,3.5-3.5,3.5s-3.5-1.57-3.5-3.5v-13.92c0-9.77,7.95-17.72,17.72-17.72s17.72,7.95,17.72,17.72v13.92c0,1.93-1.57,3.5-3.5,3.5Z"/>
  </g>
</svg>