<?xml version="1.0" encoding="UTF-8"?>
<svg id="Music-Fill--Streamline-Mingcute-Fill" xmlns="http://www.w3.org/2000/svg" version="1.1" viewBox="0 0 16 16">
  <!-- Generator: Adobe Illustrator 30.4.0, SVG Export Plug-In . SVG Version: 2.1.4 Build 226)  -->
  <path d="M10.4,8.7c-1.5,0-2.7,1.2-2.7,2.7s1.2,2.7,2.7,2.7,2.7-1.2,2.7-2.7-1.2-2.7-2.7-2.7Z"/>
  <path d="M8.9,5.8c-.5-.3-.7-1-.4-1.6.1-.2.3-.3.4-.4.7-.4,1.2-.9,1.7-1.5l-5.7,1c-.6.1-1.1.7-1.1,1.3v5.7c-.4-.2-.8-.3-1.2-.2-1.3.1-2.2,1.3-2.1,2.5.1,1.3,1.3,2.2,2.5,2.1s2.2-1.3,2.1-2.5c0,0,0,0,0-.1v-4.8l4.7-.8c-.3-.2-.6-.5-.9-.7Z"/>
  <path d="M15.5,4.7c-1.3-.7-2.3-1.9-2.9-3.3,0,0,0,0,0,0,0,0,0,0,0,0s0,0,0,0c0,0,0,0-.1,0-.1.3-.3.5-.4.8,0,0,0,.2-.1.2-.4.6-.9,1.2-1.5,1.7-.3.2-.6.4-.9.6,0,0,0,0,0,0,0,0,0,.2,0,.2.6.4,1.2.8,1.7,1.3.3.3.5.6.7.9,0,.1.1.2.2.4.1.2.3.4.4.7,0,0,0,0,0,0,0,0,0,0,0,0s0,0,0,0c0,0,0,0,.1,0,.1-.2.2-.5.4-.7,0,0,0-.2.1-.2.6-1,1.4-1.8,2.5-2.4,0,0,0,0,0,0,0,0,0-.2,0-.2Z"/>
</svg>