<?xml version="1.0" encoding="UTF-8"?>
<svg id="_레이어_2" data-name="레이어 2" xmlns="http://www.w3.org/2000/svg" viewBox="0 0 45.28 45.28">
  <defs>
    <style>
      .cls-1 {
        fill: #7425f4;
      }

      .cls-2 {
        fill: #fff;
      }
    </style>
  </defs>
  <g id="_레이어_1-2" data-name="레이어 1">
    <rect class="cls-1" width="45.28" height="45.28" rx="7.93" ry="7.93"/>
    <path class="cls-2" d="M20.51,10.56c.37,1.05-.18,2.2-1.23,2.57-5.25,1.85-8,7.61-6.14,12.86,1.85,5.25,7.61,8,12.86,6.14,4.02-1.42,6.72-5.23,6.72-9.5,0-1.61-.38-3.13-1.05-4.48-.5-1-.09-2.21.91-2.7,1-.5,2.21-.09,2.7.91.97,1.95,1.47,4.1,1.47,6.27,0,7.79-6.32,14.11-14.11,14.11s-14.11-6.32-14.11-14.11c0-6.14,3.93-11.37,9.4-13.3,1.05-.37,2.2.18,2.57,1.23ZM23.31,10.56c0-1.12.91-2.03,2.03-2.03.16,0,.32.02.47.06l.17.05,4.01,1.34c1.06.35,1.63,1.49,1.27,2.55-.33.98-1.35,1.56-2.36,1.33l-.19-.05-1.38-.46v9.55c-.15,2.59-2.37,4.58-4.96,4.44s-4.58-2.36-4.44-4.95c.14-2.59,2.36-4.58,4.95-4.44.06,0,.13,0,.19.01l.22.03v-7.42h0Z"/>
  </g>
</svg>