<?xml version="1.0" encoding="UTF-8"?>
<svg id="_레이어_2" data-name="레이어 2" xmlns="http://www.w3.org/2000/svg" viewBox="0 0 336.93 36.76">
  <defs>
    <style>
      .cls-1 {
        fill: #fff;
      }
    </style>
  </defs>
  <g id="_레이어_1-2" data-name="레이어 1">
    <g>
      <path class="cls-1" d="M112.89,2.02c-1.32-.53-2.84-.21-3.83.81-.05.05-5.4,5.48-12.28,5.53-.03,0-.06,0-.09,0-4.03,0-7.94-1.88-11.63-5.58-1-1-2.51-1.3-3.81-.76-1.31.54-2.16,1.82-2.16,3.23v26.39c0,1.93,1.57,3.5,3.5,3.5s3.5-1.57,3.5-3.5V12.42c3.37,1.96,6.91,2.94,10.6,2.94.08,0,.15,0,.23,0,4.4-.05,8.25-1.52,11.18-3.17v19.46c0,1.93,1.57,3.5,3.5,3.5s3.5-1.57,3.5-3.5V5.26c0-1.43-.87-2.7-2.19-3.24Z"/>
      <path class="cls-1" d="M252.71,1.76c-1.93,0-3.5,1.57-3.5,3.5v26.39c0,1.93,1.57,3.5,3.5,3.5s3.5-1.57,3.5-3.5V5.26c0-1.93-1.57-3.5-3.5-3.5Z"/>
      <path class="cls-1" d="M155.3,2.02c-1.32-.53-2.84-.21-3.83.81-.05.05-5.4,5.48-12.28,5.53-.03,0-.06,0-.09,0-4.03,0-7.94-1.88-11.63-5.58-1-1-2.51-1.3-3.81-.76-1.31.54-2.16,1.82-2.16,3.23v26.39c0,1.93,1.57,3.5,3.5,3.5s3.5-1.57,3.5-3.5V12.42c3.44,2,7.02,2.99,10.83,2.94,4.4-.05,8.25-1.52,11.18-3.17v19.46c0,1.93,1.57,3.5,3.5,3.5s3.5-1.57,3.5-3.5V5.26c0-1.43-.87-2.7-2.19-3.24Z"/>
      <path class="cls-1" d="M55.74,0c-10.13,0-18.38,8.24-18.38,18.38s8.25,18.38,18.38,18.38,18.38-8.24,18.38-18.38S65.87,0,55.74,0ZM55.74,29.76c-6.27,0-11.38-5.1-11.38-11.38s5.1-11.38,11.38-11.38,11.38,5.1,11.38,11.38-5.1,11.38-11.38,11.38Z"/>
      <path class="cls-1" d="M18.38,7c3.04,0,5.9,1.18,8.05,3.33,1.37,1.37,3.58,1.37,4.95,0,1.37-1.37,1.37-3.58,0-4.95C24.21-1.78,12.55-1.78,5.38,5.38,1.91,8.85,0,13.47,0,18.38s1.91,9.52,5.38,13c3.58,3.58,8.29,5.37,13,5.37s9.41-1.79,13-5.37c1.37-1.37,1.37-3.58,0-4.95-1.37-1.37-3.58-1.37-4.95,0-2.15,2.15-5.01,3.33-8.05,3.33s-5.9-1.18-8.05-3.33c-2.15-2.15-3.33-5.01-3.33-8.05s1.18-5.9,3.33-8.05c2.15-2.15,5.01-3.33,8.05-3.33Z"/>
      <path class="cls-1" d="M222.41,0c-9.77,0-17.72,7.95-17.72,17.72v13.92c0,1.93,1.57,3.5,3.5,3.5s3.5-1.57,3.5-3.5v-13.92c0-5.91,4.81-10.72,10.72-10.72s10.72,4.81,10.72,10.72v13.92c0,1.93,1.57,3.5,3.5,3.5s3.5-1.57,3.5-3.5v-13.92c0-9.77-7.95-17.72-17.72-17.72Z"/>
      <path class="cls-1" d="M195.81,1.61c-1.93,0-3.5,1.57-3.5,3.5v13.92c0,5.91-4.81,10.72-10.72,10.72s-10.72-4.81-10.72-10.72V5.11c0-1.93-1.57-3.5-3.5-3.5s-3.5,1.57-3.5,3.5v13.92c0,9.77,7.95,17.72,17.72,17.72s17.72-7.95,17.72-17.72V5.11c0-1.93-1.57-3.5-3.5-3.5Z"/>
      <path class="cls-1" d="M336.93,5.11c0-1.93-1.57-3.5-3.5-3.5s-3.5,1.57-3.5,3.5c0,5.91-4.81,10.72-10.72,10.72s-10.72-4.81-10.72-10.72c0-1.93-1.57-3.5-3.5-3.5s-3.5,1.57-3.5,3.5c0,8.57,6.12,15.74,14.22,17.37v9.17c0,1.93,1.57,3.5,3.5,3.5s3.5-1.57,3.5-3.5v-9.17c8.1-1.63,14.22-8.8,14.22-17.37Z"/>
      <path class="cls-1" d="M294.02,1.76h-28.45c-1.93,0-3.5,1.57-3.5,3.5s1.57,3.5,3.5,3.5h10.72v22.89c0,1.93,1.57,3.5,3.5,3.5s3.5-1.57,3.5-3.5V8.76h10.72c1.93,0,3.5-1.57,3.5-3.5s-1.57-3.5-3.5-3.5Z"/>
    </g>
  </g>
</svg>