<svg xmlns="http://www.w3.org/2000/svg" viewBox="0 0 16 16" id="Confused-Fill--Streamline-Mingcute-Fill" height="16" width="16">
  <desc>
    Confused Fill Streamline Icon: https://streamlinehq.com
  </desc>
  <g fill="none" fill-rule="evenodd">
    <path d="M16 0v16H0V0h16ZM8.395999999999999 15.505333333333333l-0.008 0.0013333333333333333 -0.047333333333333324 0.023333333333333334 -0.013333333333333332 0.0026666666666666666 -0.009333333333333332 -0.0026666666666666666 -0.047333333333333324 -0.023999999999999997c-0.006666666666666666 -0.002 -0.012666666666666666 0 -0.016 0.004l-0.0026666666666666666 0.006666666666666666 -0.011333333333333334 0.2853333333333333 0.003333333333333333 0.013333333333333332 0.006666666666666666 0.008666666666666666 0.06933333333333333 0.049333333333333326 0.009999999999999998 0.0026666666666666666 0.008 -0.0026666666666666666 0.06933333333333333 -0.049333333333333326 0.008 -0.010666666666666666 0.0026666666666666666 -0.011333333333333334 -0.011333333333333334 -0.2846666666666666c-0.0013333333333333333 -0.006666666666666666 -0.005999999999999999 -0.011333333333333334 -0.010666666666666666 -0.011999999999999999Zm0.176 -0.07533333333333334 -0.009333333333333332 0.0013333333333333333 -0.12266666666666666 0.062 -0.006666666666666666 0.006666666666666666 -0.002 0.007333333333333332 0.011999999999999999 0.2866666666666666 0.003333333333333333 0.008 0.005333333333333333 0.005333333333333333 0.134 0.06133333333333333c0.008 0.0026666666666666666 0.015333333333333332 0 0.019333333333333334 -0.005333333333333333l0.0026666666666666666 -0.009333333333333332 -0.02266666666666667 -0.4093333333333333c-0.002 -0.008 -0.006666666666666666 -0.013333333333333332 -0.013333333333333332 -0.014666666666666665Zm-0.4766666666666666 0.0013333333333333333a0.015333333333333332 0.015333333333333332 0 0 0 -0.018 0.004l-0.004 0.009333333333333332 -0.02266666666666667 0.4093333333333333c0 0.008 0.004666666666666666 0.013333333333333332 0.011333333333333334 0.016l0.009999999999999998 -0.0013333333333333333 0.134 -0.062 0.006666666666666666 -0.005333333333333333 0.002 -0.007333333333333332 0.011999999999999999 -0.2866666666666666 -0.002 -0.008 -0.006666666666666666 -0.006666666666666666 -0.12266666666666666 -0.06133333333333333Z" stroke-width="0.6667"></path>
    <path fill="#000000" d="M8 1.3333333333333333c3.6819999999999995 0 6.666666666666666 2.9846666666666666 6.666666666666666 6.666666666666666s-2.9846666666666666 6.666666666666666 -6.666666666666666 6.666666666666666S1.3333333333333333 11.681999999999999 1.3333333333333333 8 4.318 1.3333333333333333 8 1.3333333333333333Zm-1.2213333333333334 8.963333333333333a0.6666666666666666 0.6666666666666666 0 0 0 1.1093333333333333 0.74c0.5326666666666666 -0.7993333333333333 1.5939999999999999 -1.3126666666666666 2.6166666666666663 -1.0566666666666666a0.6666666666666666 0.6666666666666666 0 1 0 0.32399999999999995 -1.2933333333333332c-1.6440000000000001 -0.4106666666666666 -3.249333333333333 0.4093333333333333 -4.05 1.6099999999999999ZM6.333333333333333 5.333333333333333a1 1 0 1 0 0 2 1 1 0 0 0 0 -2Zm4 -0.6666666666666666a1 1 0 1 0 0 2 1 1 0 0 0 0 -2Z" stroke-width="0.6667"></path>
  </g>
</svg>