<svg xmlns="http://www.w3.org/2000/svg" viewBox="0 0 16 16" id="Gift-Card-Fill--Streamline-Mingcute-Fill" height="16" width="16">
  <desc>
    Gift Card Fill Streamline Icon: https://streamlinehq.com
  </desc>
  <g fill="none" fill-rule="nonzero">
    <path d="M16 0v16H0V0zM8.395999999999999 15.505333333333333l-0.008 0.0013333333333333333 -0.047333333333333324 0.023333333333333334 -0.013333333333333332 0.0026666666666666666 -0.009333333333333332 -0.0026666666666666666 -0.047333333333333324 -0.023999999999999997c-0.006666666666666666 -0.002 -0.012666666666666666 0 -0.016 0.004l-0.0026666666666666666 0.006666666666666666 -0.011333333333333334 0.2853333333333333 0.003333333333333333 0.013333333333333332 0.006666666666666666 0.008666666666666666 0.06933333333333333 0.049333333333333326 0.009999999999999998 0.0026666666666666666 0.008 -0.0026666666666666666 0.06933333333333333 -0.049333333333333326 0.008 -0.010666666666666666 0.0026666666666666666 -0.011333333333333334 -0.011333333333333334 -0.2846666666666666c-0.0013333333333333333 -0.006666666666666666 -0.005999999999999999 -0.011333333333333334 -0.010666666666666666 -0.011999999999999999m0.176 -0.07533333333333334 -0.009333333333333332 0.0013333333333333333 -0.12266666666666666 0.062 -0.006666666666666666 0.006666666666666666 -0.002 0.007333333333333332 0.011999999999999999 0.2866666666666666 0.003333333333333333 0.008 0.005333333333333333 0.005333333333333333 0.134 0.06133333333333333c0.008 0.0026666666666666666 0.015333333333333332 0 0.019333333333333334 -0.005333333333333333l0.0026666666666666666 -0.009333333333333332 -0.02266666666666667 -0.4093333333333333c-0.002 -0.008 -0.006666666666666666 -0.013333333333333332 -0.013333333333333332 -0.014666666666666665m-0.4766666666666666 0.0013333333333333333a0.015333333333333332 0.015333333333333332 0 0 0 -0.018 0.004l-0.004 0.009333333333333332 -0.02266666666666667 0.4093333333333333c0 0.008 0.004666666666666666 0.013333333333333332 0.011333333333333334 0.016l0.009999999999999998 -0.0013333333333333333 0.134 -0.062 0.006666666666666666 -0.005333333333333333 0.002 -0.007333333333333332 0.011999999999999999 -0.2866666666666666 -0.002 -0.008 -0.006666666666666666 -0.006666666666666666z" stroke-width="0.6667"></path>
    <path fill="#000000" d="M12.666666666666666 2.6666666666666665a2 2 0 0 1 1.9966666666666666 1.8826666666666665L14.666666666666666 4.666666666666666v6.666666666666666a2 2 0 0 1 -1.8826666666666665 1.9966666666666666L12.666666666666666 13.333333333333332H3.333333333333333a2 2 0 0 1 -1.9966666666666666 -1.8826666666666665L1.3333333333333333 11.333333333333332V4.666666666666666a2 2 0 0 1 1.8826666666666665 -1.9966666666666666L3.333333333333333 2.6666666666666665zm-4.430666666666666 3.328L8 6.402666666666666l-0.236 -0.408a1.7333333333333334 1.7333333333333334 0 0 0 -2.368 -0.6346666666666666l-0.3953333333333333 0.22866666666666668a1.8093333333333332 1.8093333333333332 0 0 0 -0.6626666666666666 2.472 2.1906666666666665 2.1906666666666665 0 0 0 2.0766666666666667 1.0879999999999999L5.769333333333333 10.266666666666666a0.6666666666666666 0.6666666666666666 0 0 0 1.1546666666666665 0.6666666666666666L8 9.07l1.076 1.8633333333333333a0.6666666666666666 0.6666666666666666 0 1 0 1.1546666666666665 -0.6666666666666666l-0.6453333333333333 -1.1179999999999999a2.1906666666666665 2.1906666666666665 0 0 0 2.0766666666666667 -1.0879999999999999 1.8093333333333332 1.8093333333333332 0 0 0 -0.6626666666666666 -2.472l-0.3953333333333333 -0.22866666666666668a1.7333333333333334 1.7333333333333334 0 0 0 -2.368 0.6346666666666666m1.642 0.492 0.05866666666666666 0.028 0.39599999999999996 0.22866666666666668a0.476 0.476 0 0 1 0.17466666666666666 0.6506666666666666 0.8573333333333333 0.8573333333333333 0 0 1 -1.0933333333333333 0.35333333333333333l-0.078 -0.039999999999999994 -0.412 -0.238 0.4666666666666666 -0.8079999999999999a0.39999999999999997 0.39999999999999997 0 0 1 0.42666666666666664 -0.19199999999999998zm-3.2686666666666664 0.17466666666666666 0.4666666666666666 0.8079999999999999 -0.4126666666666666 0.238a0.8573333333333333 0.8573333333333333 0 0 1 -1.1706666666666665 -0.3133333333333333 0.476 0.476 0 0 1 0.17466666666666666 -0.6506666666666666l0.3953333333333333 -0.22866666666666668a0.39999999999999997 0.39999999999999997 0 0 1 0.5466666666666666 0.14666666666666667" stroke-width="0.6667"></path>
  </g>
</svg>