<svg xmlns="http://www.w3.org/2000/svg" viewBox="0 0 16 16" id="File-Music-Line--Streamline-Mingcute" height="16" width="16">
  <desc>
    File Music Line Streamline Icon: https://streamlinehq.com
  </desc>
  <g fill="none" fill-rule="nonzero">
    <path d="M16 0v16H0V0h16ZM8.395333333333333 15.505333333333333l-0.007333333333333332 0.0013333333333333333 -0.047333333333333324 0.023333333333333334 -0.013333333333333332 0.0026666666666666666 -0.009333333333333332 -0.0026666666666666666 -0.047333333333333324 -0.023333333333333334c-0.006666666666666666 -0.0026666666666666666 -0.012666666666666666 -0.0006666666666666666 -0.016 0.003333333333333333l-0.0026666666666666666 0.006666666666666666 -0.011333333333333334 0.2853333333333333 0.003333333333333333 0.013333333333333332 0.006666666666666666 0.008666666666666666 0.06933333333333333 0.049333333333333326 0.009999999999999998 0.0026666666666666666 0.008 -0.0026666666666666666 0.06933333333333333 -0.049333333333333326 0.008 -0.010666666666666666 0.0026666666666666666 -0.011333333333333334 -0.011333333333333334 -0.2846666666666666c-0.0013333333333333333 -0.006666666666666666 -0.005999999999999999 -0.011333333333333334 -0.011333333333333334 -0.011999999999999999Zm0.17666666666666667 -0.07533333333333334 -0.008666666666666666 0.0013333333333333333 -0.12333333333333332 0.062 -0.006666666666666666 0.006666666666666666 -0.002 0.007333333333333332 0.011999999999999999 0.2866666666666666 0.003333333333333333 0.008 0.005333333333333333 0.004666666666666666 0.134 0.062c0.008 0.0026666666666666666 0.015333333333333332 0 0.019333333333333334 -0.005333333333333333l0.0026666666666666666 -0.009333333333333332 -0.02266666666666667 -0.4093333333333333c-0.002 -0.008 -0.006666666666666666 -0.013333333333333332 -0.013333333333333332 -0.014666666666666665Zm-0.4766666666666666 0.0013333333333333333a0.015333333333333332 0.015333333333333332 0 0 0 -0.018 0.004l-0.004 0.009333333333333332 -0.02266666666666667 0.4093333333333333c0 0.008 0.004666666666666666 0.013333333333333332 0.011333333333333334 0.016l0.009999999999999998 -0.0013333333333333333 0.134 -0.062 0.006666666666666666 -0.005333333333333333 0.0026666666666666666 -0.007333333333333332 0.011333333333333334 -0.2866666666666666 -0.002 -0.008 -0.006666666666666666 -0.006666666666666666 -0.12266666666666666 -0.06133333333333333Z" stroke-width="0.6667"></path>
    <path fill="#000000" d="M9.057333333333332 1.3333333333333333a1.3333333333333333 1.3333333333333333 0 0 1 0.856 0.31133333333333335l0.08666666666666667 0.07933333333333333L12.942666666666668 4.666666666666666a1.3333333333333333 1.3333333333333333 0 0 1 0.3853333333333333 0.8253333333333333l0.005333333333333333 0.11733333333333332V13.333333333333332a1.3333333333333333 1.3333333333333333 0 0 1 -1.2333333333333334 1.33L12 14.666666666666666H4a1.3333333333333333 1.3333333333333333 0 0 1 -1.33 -1.2333333333333334L2.6666666666666665 13.333333333333332V2.6666666666666665a1.3333333333333333 1.3333333333333333 0 0 1 1.2333333333333334 -1.33L4 1.3333333333333333h5.057333333333333ZM8 2.6666666666666665H4v10.666666666666666h8V6.666666666666666h-3A1 1 0 0 1 8 5.666666666666666V2.6666666666666665Zm1.6326666666666665 5.1226666666666665a0.6666666666666666 0.6666666666666666 0 0 1 -0.422 0.8433333333333333L8.666666666666666 8.813333333333333V10.666666666666666a1.3333333333333333 1.3333333333333333 0 1 1 -1.3333333333333333 -1.3333333333333333v-0.7599999999999999a1 1 0 0 1 0.6839999999999999 -0.9486666666666667l0.7719999999999999 -0.2573333333333333a0.6666666666666666 0.6666666666666666 0 0 1 0.8433333333333333 0.422ZM9.333333333333332 2.9426666666666663V5.333333333333333h2.3906666666666663L9.333333333333332 2.9426666666666663Z" stroke-width="0.6667"></path>
  </g>
</svg>