<svg xmlns="http://www.w3.org/2000/svg" viewBox="0 0 16 16" id="Music-3-Fill--Streamline-Mingcute-Fill" height="16" width="16">
  <desc>
    Music 3 Fill Streamline Icon: https://streamlinehq.com
  </desc>
  <g fill="none" fill-rule="nonzero">
    <path d="M16 0v16H0V0h16ZM8.395333333333333 15.505333333333333l-0.007333333333333332 0.0013333333333333333 -0.047333333333333324 0.023333333333333334 -0.013333333333333332 0.0026666666666666666 -0.009333333333333332 -0.0026666666666666666 -0.047333333333333324 -0.023333333333333334c-0.006666666666666666 -0.0026666666666666666 -0.012666666666666666 -0.0006666666666666666 -0.016 0.003333333333333333l-0.0026666666666666666 0.006666666666666666 -0.011333333333333334 0.2853333333333333 0.003333333333333333 0.013333333333333332 0.006666666666666666 0.008666666666666666 0.06933333333333333 0.049333333333333326 0.009999999999999998 0.0026666666666666666 0.008 -0.0026666666666666666 0.06933333333333333 -0.049333333333333326 0.008 -0.010666666666666666 0.0026666666666666666 -0.011333333333333334 -0.011333333333333334 -0.2846666666666666c-0.0013333333333333333 -0.006666666666666666 -0.005999999999999999 -0.011333333333333334 -0.011333333333333334 -0.011999999999999999Zm0.17666666666666667 -0.07533333333333334 -0.008666666666666666 0.0013333333333333333 -0.12333333333333332 0.062 -0.006666666666666666 0.006666666666666666 -0.002 0.007333333333333332 0.011999999999999999 0.2866666666666666 0.003333333333333333 0.008 0.005333333333333333 0.004666666666666666 0.134 0.062c0.008 0.0026666666666666666 0.015333333333333332 0 0.019333333333333334 -0.005333333333333333l0.0026666666666666666 -0.009333333333333332 -0.02266666666666667 -0.4093333333333333c-0.002 -0.008 -0.006666666666666666 -0.013333333333333332 -0.013333333333333332 -0.014666666666666665Zm-0.4766666666666666 0.0013333333333333333a0.015333333333333332 0.015333333333333332 0 0 0 -0.018 0.004l-0.004 0.009333333333333332 -0.02266666666666667 0.4093333333333333c0 0.008 0.004666666666666666 0.013333333333333332 0.011333333333333334 0.016l0.009999999999999998 -0.0013333333333333333 0.134 -0.062 0.006666666666666666 -0.005333333333333333 0.0026666666666666666 -0.007333333333333332 0.011333333333333334 -0.2866666666666666 -0.002 -0.008 -0.006666666666666666 -0.006666666666666666 -0.12266666666666666 -0.06133333333333333Z" stroke-width="0.6667"></path>
    <path fill="#000000" d="M6.942666666666666 2.008A1 1 0 0 1 6.333333333333333 3.284 5 5 0 1 0 13 8c0 -0.7999999999999999 -0.18666666666666668 -1.5533333333333332 -0.5193333333333333 -2.221333333333333a1 1 0 0 1 1.7913333333333332 -0.8906666666666667A6.9753333333333325 6.9753333333333325 0 0 1 15 8c0 3.866 -3.1339999999999995 7 -7 7S1 11.866 1 8c0 -3.0493333333333332 1.9493333333333331 -5.640666666666666 4.666666666666666 -6.601333333333333a1 1 0 0 1 1.2759999999999998 0.6093333333333333Zm1.3906666666666665 0.0013333333333333333a1.0066666666666666 1.0066666666666666 0 0 1 1.24 -0.98l0.08533333333333333 0.024666666666666663 1.9906666666666668 0.6639999999999999a1 1 0 0 1 -0.54 1.9233333333333331l-0.092 -0.026 -0.6839999999999999 -0.228V8l-0.003333333333333333 0.128a2.333333333333333 2.333333333333333 0 1 1 -2.1066666666666665 -2.4506666666666668l0.11 0.013333333333333332V2.0086666666666666Z" stroke-width="0.6667"></path>
  </g>
</svg>