<svg xmlns="http://www.w3.org/2000/svg" viewBox="0 0 16 16" id="Horn-Fill--Streamline-Mingcute-Fill" height="16" width="16">
  <desc>
    Horn Fill Streamline Icon: https://streamlinehq.com
  </desc>
  <g fill="none" fill-rule="nonzero">
    <path d="M16 0v16H0V0h16ZM8.395333333333333 15.505333333333333l-0.007333333333333332 0.0013333333333333333 -0.047333333333333324 0.023333333333333334 -0.013333333333333332 0.0026666666666666666 -0.009333333333333332 -0.0026666666666666666 -0.047333333333333324 -0.023333333333333334c-0.006666666666666666 -0.0026666666666666666 -0.012666666666666666 -0.0006666666666666666 -0.016 0.003333333333333333l-0.0026666666666666666 0.006666666666666666 -0.011333333333333334 0.2853333333333333 0.003333333333333333 0.013333333333333332 0.006666666666666666 0.008666666666666666 0.06933333333333333 0.049333333333333326 0.009999999999999998 0.0026666666666666666 0.008 -0.0026666666666666666 0.06933333333333333 -0.049333333333333326 0.008 -0.010666666666666666 0.0026666666666666666 -0.011333333333333334 -0.011333333333333334 -0.2846666666666666c-0.0013333333333333333 -0.006666666666666666 -0.005999999999999999 -0.011333333333333334 -0.011333333333333334 -0.011999999999999999Zm0.17666666666666667 -0.07533333333333334 -0.008666666666666666 0.0013333333333333333 -0.12333333333333332 0.062 -0.006666666666666666 0.006666666666666666 -0.002 0.007333333333333332 0.011999999999999999 0.2866666666666666 0.003333333333333333 0.008 0.005333333333333333 0.004666666666666666 0.134 0.062c0.008 0.0026666666666666666 0.015333333333333332 0 0.019333333333333334 -0.005333333333333333l0.0026666666666666666 -0.009333333333333332 -0.02266666666666667 -0.4093333333333333c-0.002 -0.008 -0.006666666666666666 -0.013333333333333332 -0.013333333333333332 -0.014666666666666665Zm-0.4766666666666666 0.0013333333333333333a0.015333333333333332 0.015333333333333332 0 0 0 -0.018 0.004l-0.004 0.009333333333333332 -0.02266666666666667 0.4093333333333333c0 0.008 0.004666666666666666 0.013333333333333332 0.011333333333333334 0.016l0.009999999999999998 -0.0013333333333333333 0.134 -0.062 0.006666666666666666 -0.005333333333333333 0.0026666666666666666 -0.007333333333333332 0.011333333333333334 -0.2866666666666666 -0.002 -0.008 -0.006666666666666666 -0.006666666666666666 -0.12266666666666666 -0.06133333333333333Z" stroke-width="0.6667"></path>
    <path fill="#000000" d="M12.766 1.5519999999999998C13.33 1.242 14 1.659333333333333 14 2.284v11.431999999999999c0 0.6246666666666667 -0.6699999999999999 1.0419999999999998 -1.234 0.732 -0.758 -0.416 -3.002 -1.6280000000000001 -4.345333333333333 -2.162a12.610666666666667 12.610666666666667 0 0 0 -2.5846666666666662 -0.7333333333333334l-0.5153333333333333 2.578a0.6666666666666666 0.6666666666666666 0 1 1 -1.3079999999999998 -0.2613333333333333l0.4953333333333333 -2.4766666666666666a18.913333333333334 18.913333333333334 0 0 0 -0.5393333333333333 -0.03266666666666666C2.8999999999999995 11.310666666666666 2 10.447333333333333 2 9.333333333333332v-2.6666666666666665c0 -1.1139999999999999 0.9 -1.9773333333333334 1.9686666666666666 -2.0266666666666664 0.23666666666666664 -0.011333333333333334 0.46933333333333327 -0.026 0.698 -0.04533333333333334V10.666666666666666h0.02266666666666667a0.6666666666666666 0.6666666666666666 0 0 1 1.1546666666666665 0H6V4.418666666666667a12.661333333333333 12.661333333333333 0 0 0 2.42 -0.7046666666666666c1.3439999999999999 -0.534 3.5879999999999996 -1.7466666666666666 4.346 -2.162Z" stroke-width="0.6667"></path>
  </g>
</svg>