<svg xmlns="http://www.w3.org/2000/svg" viewBox="0 0 16 16" id="Notification-Fill--Streamline-Mingcute-Fill" height="16" width="16">
  <desc>
    Notification Fill Streamline Icon: https://streamlinehq.com
  </desc>
  <g fill="none">
    <path d="m16 0 0 16 -16 0L0 0l16 0ZM8.395666666666667 15.505199999999999l-0.0077333333333333325 0.0011333333333333332 -0.047333333333333324 0.023666666666666662 -0.012666666666666666 0.0024666666666666665 -0.010133333333333333 -0.0024666666666666665 -0.047333333333333324 -0.023666666666666662c-0.0066 -0.0020666666666666663 -0.012466666666666668 -0.0003333333333333333 -0.015733333333333332 0.0036l-0.0027333333333333333 0.007266666666666666 -0.0114 0.28486666666666666 0.003333333333333333 0.013600000000000001 0.007333333333333332 0.008133333333333333 0.06906666666666667 0.049333333333333326 0.009866666666666666 0.0026 0.007866666666666666 -0.0026 0.06906666666666667 -0.049333333333333326 0.0084 -0.010666666666666666 0.0022666666666666664 -0.011066666666666666 -0.0114 -0.28486666666666666c-0.0013333333333333333 -0.0067333333333333325 -0.005733333333333333 -0.011 -0.010733333333333333 -0.011999999999999999Zm0.1766 -0.075 -0.009266666666666666 0.0013333333333333333 -0.12313333333333333 0.061599999999999995 -0.0066 0.0068000000000000005 -0.0018 0.007466666666666667 0.011933333333333332 0.28633333333333333 0.0031999999999999997 0.008533333333333334 0.005666666666666667 0.004733333333333333 0.13393333333333332 0.0618c0.008066666666666666 0.0024666666666666665 0.015266666666666666 -0.00013333333333333334 0.019 -0.005333333333333333l0.0026666666666666666 -0.009333333333333332 -0.02273333333333333 -0.4098c-0.0015999999999999999 -0.007933333333333334 -0.006866666666666667 -0.013 -0.012866666666666667 -0.014133333333333333Zm-0.4769333333333333 0.0013333333333333333c-0.006533333333333333 -0.0032666666666666664 -0.013866666666666666 -0.0013333333333333333 -0.018266666666666667 0.003533333333333333l-0.0038 0.009266666666666666 -0.02273333333333333 0.4098c-0.00046666666666666666 0.007666666666666666 0.004666666666666666 0.0138 0.011199999999999998 0.0156l0.010466666666666666 -0.0009333333333333333 0.13393333333333332 -0.0618 0.006266666666666667 -0.005399999999999999 0.0026 -0.007866666666666666 0.011933333333333332 -0.28633333333333333 -0.0021333333333333334 -0.0084 -0.006266666666666667 -0.005866666666666667 -0.12319999999999999 -0.061599999999999995Z" stroke-width="0.6667"></path>
    <path fill="#000000" d="M8.000133333333332 1.3333333333333333C5.4227799999999995 1.3333333333333333 3.33344 3.422673333333333 3.33344 6l0 2.351933333333333c0 0.10346666666666667 -0.02409333333333333 0.20553333333333335 -0.07038 0.2981333333333333l-1.1443266666666667 2.2886666666666664C1.8749333333333331 11.426333333333334 2.2295 12 2.7746466666666665 12l10.450953333333333 0c0.5451333333333332 0 0.8996666666666666 -0.5736666666666667 0.6558666666666666 -1.0612666666666666l-1.1443333333333332 -2.2886666666666664c-0.046266666666666664 -0.09259999999999999 -0.07033333333333333 -0.19466666666666665 -0.07033333333333333 -0.2981333333333333l0 -2.351933333333333c0 -2.5773266666666665 -2.0893333333333333 -4.666666666666666 -4.666666666666666 -4.666666666666666Zm-0.00019999999999999998 12.666666666666666c-0.8708 0 -1.6116066666666664 -0.5565333333333333 -1.8861666666666665 -1.3333333333333333l3.7723666666666666 0c-0.2745333333333333 0.7767999999999999 -1.0153333333333332 1.3333333333333333 -1.8861999999999999 1.3333333333333333Z" stroke-width="0.6667"></path>
  </g>
</svg>