<svg xmlns="http://www.w3.org/2000/svg" viewBox="0 0 16 16" id="World-2-Fill--Streamline-Mingcute-Fill" height="16" width="16">
  <desc>
    World 2 Fill Streamline Icon: https://streamlinehq.com
  </desc>
  <g fill="none" fill-rule="evenodd">
    <path d="M16 0v16H0V0h16ZM8.395333333333333 15.505333333333333l-0.007333333333333332 0.0013333333333333333 -0.047333333333333324 0.023333333333333334 -0.013333333333333332 0.0026666666666666666 -0.009333333333333332 -0.0026666666666666666 -0.047333333333333324 -0.023333333333333334c-0.006666666666666666 -0.0026666666666666666 -0.012666666666666666 -0.0006666666666666666 -0.016 0.003333333333333333l-0.0026666666666666666 0.006666666666666666 -0.011333333333333334 0.2853333333333333 0.003333333333333333 0.013333333333333332 0.006666666666666666 0.008666666666666666 0.06933333333333333 0.049333333333333326 0.009999999999999998 0.0026666666666666666 0.008 -0.0026666666666666666 0.06933333333333333 -0.049333333333333326 0.008 -0.010666666666666666 0.0026666666666666666 -0.011333333333333334 -0.011333333333333334 -0.2846666666666666c-0.0013333333333333333 -0.006666666666666666 -0.005999999999999999 -0.011333333333333334 -0.011333333333333334 -0.011999999999999999Zm0.17666666666666667 -0.07533333333333334 -0.008666666666666666 0.0013333333333333333 -0.12333333333333332 0.062 -0.006666666666666666 0.006666666666666666 -0.002 0.007333333333333332 0.011999999999999999 0.2866666666666666 0.003333333333333333 0.008 0.005333333333333333 0.004666666666666666 0.134 0.062c0.008 0.0026666666666666666 0.015333333333333332 0 0.019333333333333334 -0.005333333333333333l0.0026666666666666666 -0.009333333333333332 -0.02266666666666667 -0.4093333333333333c-0.002 -0.008 -0.006666666666666666 -0.013333333333333332 -0.013333333333333332 -0.014666666666666665Zm-0.4766666666666666 0.0013333333333333333a0.015333333333333332 0.015333333333333332 0 0 0 -0.018 0.004l-0.004 0.009333333333333332 -0.02266666666666667 0.4093333333333333c0 0.008 0.004666666666666666 0.013333333333333332 0.011333333333333334 0.016l0.009999999999999998 -0.0013333333333333333 0.134 -0.062 0.006666666666666666 -0.005333333333333333 0.0026666666666666666 -0.007333333333333332 0.011333333333333334 -0.2866666666666666 -0.002 -0.008 -0.006666666666666666 -0.006666666666666666 -0.12266666666666666 -0.06133333333333333Z" stroke-width="0.6667"></path>
    <path fill="#000000" fill-rule="nonzero" d="M8 1.3333333333333333c3.6819999999999995 0 6.666666666666666 2.9846666666666666 6.666666666666666 6.666666666666666s-2.9846666666666666 6.666666666666666 -6.666666666666666 6.666666666666666S1.3333333333333333 11.681999999999999 1.3333333333333333 8 4.318 1.3333333333333333 8 1.3333333333333333Zm1.3333333333333333 7.6 -1.0426666666666666 0.8339999999999999a0.3333333333333333 0.3333333333333333 0 0 0 -0.027333333333333334 0.496l0.8260000000000001 0.8260000000000001a1.3333333333333333 1.3333333333333333 0 0 1 0.33866666666666667 0.576l0.11666666666666665 0.4086666666666666a1.2 1.2 0 0 0 0.6779999999999999 0.7753333333333333 5.347333333333333 5.347333333333333 0 0 0 1.6886666666666665 -1.2233333333333332l-0.156 -1.2513333333333332a1.3333333333333333 1.3333333333333333 0 0 0 -0.7266666666666667 -1.0266666666666666l-0.98 -0.49066666666666664A0.6666666666666666 0.6666666666666666 0 0 0 9.333333333333332 8.933333333333334ZM8 2.6666666666666665a5.324666666666666 5.324666666666666 0 0 0 -4.223333333333333 2.0759999999999996l-0.11 0.14733333333333332V6.013333333333333a2 2 0 0 0 1.2966666666666666 1.8726666666666667l0.11866666666666666 0.039999999999999994 0.86 0.2633333333333333c0.9153333333333333 0.27999999999999997 1.8066666666666666 -0.4646666666666666 1.718 -1.3973333333333333l-0.012666666666666666 -0.09666666666666665 -0.11666666666666665 -0.6993333333333333a0.6666666666666666 0.6666666666666666 0 0 1 0.43733333333333335 -0.7386666666666667l0.072 -0.019999999999999997 0.408 -0.09333333333333334a1.7779999999999998 1.7779999999999998 0 0 0 1.326 -2.175333333333333A5.324666666666666 5.324666666666666 0 0 0 8 2.6666666666666665Z" stroke-width="0.6667"></path>
  </g>
</svg>