<svg xmlns="http://www.w3.org/2000/svg" viewBox="0 0 16 16" id="Skip-Previous-Fill--Streamline-Mingcute-Fill" height="16" width="16">
  <desc>
    Skip Previous Fill Streamline Icon: https://streamlinehq.com
  </desc>
  <g fill="none" fill-rule="nonzero">
    <path d="M16 0v16H0V0h16ZM8.395333333333333 15.505333333333333l-0.007333333333333332 0.0013333333333333333 -0.047333333333333324 0.023333333333333334 -0.013333333333333332 0.0026666666666666666 -0.009333333333333332 -0.0026666666666666666 -0.047333333333333324 -0.023333333333333334c-0.006666666666666666 -0.0026666666666666666 -0.012666666666666666 -0.0006666666666666666 -0.016 0.003333333333333333l-0.0026666666666666666 0.006666666666666666 -0.011333333333333334 0.2853333333333333 0.003333333333333333 0.013333333333333332 0.006666666666666666 0.008666666666666666 0.06933333333333333 0.049333333333333326 0.009999999999999998 0.0026666666666666666 0.008 -0.0026666666666666666 0.06933333333333333 -0.049333333333333326 0.008 -0.010666666666666666 0.0026666666666666666 -0.011333333333333334 -0.011333333333333334 -0.2846666666666666c-0.0013333333333333333 -0.006666666666666666 -0.005999999999999999 -0.011333333333333334 -0.011333333333333334 -0.011999999999999999Zm0.17666666666666667 -0.07533333333333334 -0.008666666666666666 0.0013333333333333333 -0.12333333333333332 0.062 -0.006666666666666666 0.006666666666666666 -0.002 0.007333333333333332 0.011999999999999999 0.2866666666666666 0.003333333333333333 0.008 0.005333333333333333 0.004666666666666666 0.134 0.062c0.008 0.0026666666666666666 0.015333333333333332 0 0.019333333333333334 -0.005333333333333333l0.0026666666666666666 -0.009333333333333332 -0.02266666666666667 -0.4093333333333333c-0.002 -0.008 -0.006666666666666666 -0.013333333333333332 -0.013333333333333332 -0.014666666666666665Zm-0.4766666666666666 0.0013333333333333333a0.015333333333333332 0.015333333333333332 0 0 0 -0.018 0.004l-0.004 0.009333333333333332 -0.02266666666666667 0.4093333333333333c0 0.008 0.004666666666666666 0.013333333333333332 0.011333333333333334 0.016l0.009999999999999998 -0.0013333333333333333 0.134 -0.062 0.006666666666666666 -0.005333333333333333 0.0026666666666666666 -0.007333333333333332 0.011333333333333334 -0.2866666666666666 -0.002 -0.008 -0.006666666666666666 -0.006666666666666666 -0.12266666666666666 -0.06133333333333333Z" stroke-width="0.6667"></path>
    <path fill="#000000" d="m13.62 3.91 0.052 0.46599999999999997 0.047999999999999994 0.5113333333333333 0.023999999999999997 0.29866666666666664 0.033999999999999996 0.5 0.019999999999999997 0.3666666666666667 0.025333333333333333 0.596 0.012666666666666666 0.42733333333333334 0.008 0.45 0.0026666666666666666 0.47133333333333327 -0.0026666666666666666 0.47133333333333327 -0.008 0.45 -0.012666666666666666 0.42733333333333334 -0.016 0.40399999999999997 -0.018666666666666665 0.3793333333333333 -0.03333333333333333 0.52 -0.023333333333333334 0.3133333333333333 -0.06 0.6573333333333333 -0.05266666666666667 0.46533333333333327a0.888 0.888 0 0 1 -1.2293333333333334 0.71l-0.32666666666666666 -0.142 -0.564 -0.2573333333333333 -0.41333333333333333 -0.19866666666666666 -0.30533333333333335 -0.15066666666666667 -0.49866666666666665 -0.254 -0.3586666666666667 -0.18866666666666665 -0.3773333333333333 -0.204 -0.39599999999999996 -0.21933333333333332 -0.4126666666666666 -0.2353333333333333 -0.41 -0.24 -0.38799999999999996 -0.23266666666666663 -0.5393333333333333 -0.3333333333333333 -0.48666666666666664 -0.3133333333333333 -0.29533333333333334 -0.19466666666666665 -0.27066666666666667 -0.18266666666666667 -0.36 -0.24866666666666665 -0.3913333333333333 -0.27999999999999997 -0.2866666666666666 -0.21266666666666667a0.888 0.888 0 0 1 0.0013333333333333333 -1.42l0.21666666666666667 -0.16133333333333333 0.2813333333333333 -0.204 0.3446666666666667 -0.242 0.4046666666666666 -0.27599999999999997 0.4626666666666666 -0.30533333333333335 0.33999999999999997 -0.218 0.364 -0.228 0.3873333333333333 -0.23666666666666664 0.41133333333333333 -0.244 0.21333333333333332 -0.124c0.13866666666666666 -0.07999999999999999 0.2746666666666666 -0.15799999999999997 0.4086666666666666 -0.23266666666666663l0.39199999999999996 -0.21733333333333332 0.3753333333333333 -0.20266666666666666 0.5286666666666666 -0.27599999999999997 0.4833333333333333 -0.24333333333333332 0.29466666666666663 -0.1433333333333333 0.39799999999999996 -0.18866666666666665 0.5346666666666666 -0.24133333333333332 0.23666666666666664 -0.10266666666666666a0.888 0.888 0 0 1 1.2306666666666666 0.71ZM4 3.333333333333333a0.6666666666666666 0.6666666666666666 0 0 1 0.6619999999999999 0.5886666666666667L4.666666666666666 4v8a0.6666666666666666 0.6666666666666666 0 0 1 -0.5886666666666667 0.6619999999999999L4 12.666666666666666H3.333333333333333a0.6666666666666666 0.6666666666666666 0 0 1 -0.6619999999999999 -0.5886666666666667L2.6666666666666665 12V4a0.6666666666666666 0.6666666666666666 0 0 1 0.5886666666666667 -0.6619999999999999L3.333333333333333 3.333333333333333h0.6666666666666666Z" stroke-width="0.6667"></path>
  </g>
</svg>