<svg xmlns="http://www.w3.org/2000/svg" viewBox="0 0 16 16" id="Sparkles-Fill--Streamline-Mingcute-Fill" height="16" width="16">
  <desc>
    Sparkles Fill Streamline Icon: https://streamlinehq.com
  </desc>
  <g fill="none" fill-rule="nonzero">
    <path d="M16 0v16H0V0h16ZM8.395333333333333 15.505333333333333l-0.007333333333333332 0.0013333333333333333 -0.047333333333333324 0.023333333333333334 -0.013333333333333332 0.0026666666666666666 -0.009333333333333332 -0.0026666666666666666 -0.047333333333333324 -0.023333333333333334c-0.006666666666666666 -0.0026666666666666666 -0.012666666666666666 -0.0006666666666666666 -0.016 0.003333333333333333l-0.0026666666666666666 0.006666666666666666 -0.011333333333333334 0.2853333333333333 0.003333333333333333 0.013333333333333332 0.006666666666666666 0.008666666666666666 0.06933333333333333 0.049333333333333326 0.009999999999999998 0.0026666666666666666 0.008 -0.0026666666666666666 0.06933333333333333 -0.049333333333333326 0.008 -0.010666666666666666 0.0026666666666666666 -0.011333333333333334 -0.011333333333333334 -0.2846666666666666c-0.0013333333333333333 -0.006666666666666666 -0.005999999999999999 -0.011333333333333334 -0.011333333333333334 -0.011999999999999999Zm0.17666666666666667 -0.07533333333333334 -0.008666666666666666 0.0013333333333333333 -0.12333333333333332 0.062 -0.006666666666666666 0.006666666666666666 -0.002 0.007333333333333332 0.011999999999999999 0.2866666666666666 0.003333333333333333 0.008 0.005333333333333333 0.004666666666666666 0.134 0.062c0.008 0.0026666666666666666 0.015333333333333332 0 0.019333333333333334 -0.005333333333333333l0.0026666666666666666 -0.009333333333333332 -0.02266666666666667 -0.4093333333333333c-0.002 -0.008 -0.006666666666666666 -0.013333333333333332 -0.013333333333333332 -0.014666666666666665Zm-0.4766666666666666 0.0013333333333333333a0.015333333333333332 0.015333333333333332 0 0 0 -0.018 0.004l-0.004 0.009333333333333332 -0.02266666666666667 0.4093333333333333c0 0.008 0.004666666666666666 0.013333333333333332 0.011333333333333334 0.016l0.009999999999999998 -0.0013333333333333333 0.134 -0.062 0.006666666666666666 -0.005333333333333333 0.0026666666666666666 -0.007333333333333332 0.011333333333333334 -0.2866666666666666 -0.002 -0.008 -0.006666666666666666 -0.006666666666666666 -0.12266666666666666 -0.06133333333333333Z" stroke-width="0.6667"></path>
    <path fill="#000000" d="m4.115333333333333 8.669333333333332 0.11333333333333334 0.24733333333333332a5.796 5.796 0 0 0 2.1999999999999997 2.425333333333333l0.17666666666666667 0.10333333333333333a0.12066666666666666 0.12066666666666666 0 0 1 0 0.21066666666666667 5.795333333333333 5.795333333333333 0 0 0 -2.3766666666666665 2.5286666666666666l-0.11333333333333334 0.248a0.12666666666666665 0.12666666666666665 0 0 1 -0.23066666666666663 0l-0.11333333333333334 -0.248a5.795333333333333 5.795333333333333 0 0 0 -2.3766666666666665 -2.5286666666666666 0.12066666666666666 0.12066666666666666 0 0 1 0 -0.21066666666666667l0.17666666666666667 -0.10333333333333333a5.796 5.796 0 0 0 2.1999999999999997 -2.425333333333333l0.11333333333333334 -0.24733333333333332a0.12666666666666665 0.12666666666666665 0 0 1 0.23066666666666663 0ZM10.052 1.8199999999999998a10.142 10.142 0 0 0 4.357333333333333 4.858666666666666 0.21133333333333332 0.21133333333333332 0 0 1 0 0.3686666666666667 10.141333333333332 10.141333333333332 0 0 0 -4.357333333333333 4.859333333333333 0.22066666666666668 0.22066666666666668 0 0 1 -0.4033333333333333 0 10.141333333333332 10.141333333333332 0 0 0 -4.357333333333333 -4.859333333333333 0.21133333333333332 0.21133333333333332 0 0 1 0 -0.3686666666666667 10.142 10.142 0 0 0 4.357333333333333 -4.858666666666666 0.22066666666666668 0.22066666666666668 0 0 1 0.4033333333333333 0Z" stroke-width="0.6667"></path>
  </g>
</svg>