<svg xmlns="http://www.w3.org/2000/svg" viewBox="0 0 16 16" id="Vip-2-Fill--Streamline-Mingcute-Fill" height="16" width="16">
  <desc>
    VIP 2 Fill Streamline Icon: https://streamlinehq.com
  </desc>
  <g fill="none" fill-rule="nonzero">
    <path d="M16 0v16H0V0zM8.395333333333333 15.505333333333333l-0.007333333333333332 0.0013333333333333333 -0.047333333333333324 0.023333333333333334 -0.013333333333333332 0.0026666666666666666 -0.009333333333333332 -0.0026666666666666666 -0.047333333333333324 -0.023333333333333334c-0.006666666666666666 -0.0026666666666666666 -0.012666666666666666 -0.0006666666666666666 -0.016 0.003333333333333333l-0.0026666666666666666 0.006666666666666666 -0.011333333333333334 0.2853333333333333 0.003333333333333333 0.013333333333333332 0.006666666666666666 0.008666666666666666 0.06933333333333333 0.049333333333333326 0.009999999999999998 0.0026666666666666666 0.008 -0.0026666666666666666 0.06933333333333333 -0.049333333333333326 0.008 -0.010666666666666666 0.0026666666666666666 -0.011333333333333334 -0.011333333333333334 -0.2846666666666666c-0.0013333333333333333 -0.006666666666666666 -0.005999999999999999 -0.011333333333333334 -0.011333333333333334 -0.011999999999999999m0.17666666666666667 -0.07533333333333334 -0.008666666666666666 0.0013333333333333333 -0.12333333333333332 0.062 -0.006666666666666666 0.006666666666666666 -0.002 0.007333333333333332 0.011999999999999999 0.2866666666666666 0.003333333333333333 0.008 0.005333333333333333 0.004666666666666666 0.134 0.062c0.008 0.0026666666666666666 0.015333333333333332 0 0.019333333333333334 -0.005333333333333333l0.0026666666666666666 -0.009333333333333332 -0.02266666666666667 -0.4093333333333333c-0.002 -0.008 -0.006666666666666666 -0.013333333333333332 -0.013333333333333332 -0.014666666666666665m-0.4766666666666666 0.0013333333333333333a0.015333333333333332 0.015333333333333332 0 0 0 -0.018 0.004l-0.004 0.009333333333333332 -0.02266666666666667 0.4093333333333333c0 0.008 0.004666666666666666 0.013333333333333332 0.011333333333333334 0.016l0.009999999999999998 -0.0013333333333333333 0.134 -0.062 0.006666666666666666 -0.005333333333333333 0.0026666666666666666 -0.007333333333333332 0.011333333333333334 -0.2866666666666666 -0.002 -0.008 -0.006666666666666666 -0.006666666666666666z" stroke-width="0.6667"></path>
    <path fill="#000000" d="M8.658 3.8266666666666667a1.3333333333333333 1.3333333333333333 0 1 0 -1.3133333333333332 0.0013333333333333333l-0.006666666666666666 0.011999999999999999c-0.43666666666666665 0.9113333333333333 -1.0433333333333332 2.216666666666667 -1.98 2.706666666666666 -0.7693333333333332 0.40199999999999997 -1.8733333333333333 0.19999999999999998 -2.6933333333333334 0.049333333333333326a1 1 0 1 0 -1.1813333333333333 1.0533333333333332l1.9653333333333332 5.073333333333333A2 2 0 0 0 5.313333333333333 14h5.373333333333333a2 2 0 0 0 1.8646666666666667 -1.2773333333333332l1.9646666666666666 -5.073333333333333a1 1 0 1 0 -1.178 -1.0826666666666667c-0.8393333333333333 0.10866666666666666 -1.9213333333333333 0.24733333333333332 -2.6959999999999997 -0.15733333333333333 -0.9179999999999999 -0.48 -1.5333333333333332 -1.6953333333333334 -1.984 -2.5826666666666664" stroke-width="0.6667"></path>
  </g>
</svg>