<svg xmlns="http://www.w3.org/2000/svg" viewBox="0 0 16 16" id="Magic-3-Line--Streamline-Mingcute" height="16" width="16">
  <desc>
    Magic 3 Line Streamline Icon: https://streamlinehq.com
  </desc>
  <g fill="none" fill-rule="evenodd">
    <path d="M16 0v16H0V0h16ZM8.395999999999999 15.505333333333333l-0.008 0.0013333333333333333 -0.047333333333333324 0.023333333333333334 -0.013333333333333332 0.0026666666666666666 -0.009333333333333332 -0.0026666666666666666 -0.047333333333333324 -0.023999999999999997c-0.006666666666666666 -0.002 -0.012666666666666666 0 -0.016 0.004l-0.0026666666666666666 0.006666666666666666 -0.011333333333333334 0.2853333333333333 0.003333333333333333 0.013333333333333332 0.006666666666666666 0.008666666666666666 0.06933333333333333 0.049333333333333326 0.009999999999999998 0.0026666666666666666 0.008 -0.0026666666666666666 0.06933333333333333 -0.049333333333333326 0.008 -0.010666666666666666 0.0026666666666666666 -0.011333333333333334 -0.011333333333333334 -0.2846666666666666c-0.0013333333333333333 -0.006666666666666666 -0.005999999999999999 -0.011333333333333334 -0.010666666666666666 -0.011999999999999999Zm0.176 -0.07533333333333334 -0.009333333333333332 0.0013333333333333333 -0.12266666666666666 0.062 -0.006666666666666666 0.006666666666666666 -0.002 0.007333333333333332 0.011999999999999999 0.2866666666666666 0.003333333333333333 0.008 0.005333333333333333 0.005333333333333333 0.134 0.06133333333333333c0.008 0.0026666666666666666 0.015333333333333332 0 0.019333333333333334 -0.005333333333333333l0.0026666666666666666 -0.009333333333333332 -0.02266666666666667 -0.4093333333333333c-0.002 -0.008 -0.006666666666666666 -0.013333333333333332 -0.013333333333333332 -0.014666666666666665Zm-0.4766666666666666 0.0013333333333333333a0.015333333333333332 0.015333333333333332 0 0 0 -0.018 0.004l-0.004 0.009333333333333332 -0.02266666666666667 0.4093333333333333c0 0.008 0.004666666666666666 0.013333333333333332 0.011333333333333334 0.016l0.009999999999999998 -0.0013333333333333333 0.134 -0.062 0.006666666666666666 -0.005333333333333333 0.002 -0.007333333333333332 0.011999999999999999 -0.2866666666666666 -0.002 -0.008 -0.006666666666666666 -0.006666666666666666 -0.12266666666666666 -0.06133333333333333Z" stroke-width="0.6667"></path>
    <path fill="currentColor" d="m5.642666666666667 2.8146666666666667 8.014 8.013333333333332a0.6733333333333333 0.6733333333333333 0 0 1 0 0.9433333333333334l-1.885333333333333 1.885333333333333a0.6666666666666666 0.6666666666666666 0 0 1 -0.9426666666666665 0L2.8146666666666667 5.643333333333333a1.3333333333333333 1.3333333333333333 0 0 1 0 -1.8860000000000001l0.9426666666666665 -0.9426666666666665a1.3333333333333333 1.3333333333333333 0 0 1 1.885333333333333 0ZM3.333333333333333 7.666666666666666c0.296 0 0.5053333333333333 0.17933333333333334 0.6333333333333333 0.42133333333333334l0.03533333333333333 0.07466666666666666a2.578 2.578 0 0 0 0.9233333333333333 1.1146666666666665l0.13999999999999999 0.08533333333333333c0.23866666666666664 0.13466666666666666 0.41333333333333333 0.35 0.41333333333333333 0.6366666666666666 0 0.2533333333333333 -0.13533333333333333 0.45333333333333337 -0.3333333333333333 0.588l-0.07666666666666666 0.047999999999999994a2.517333333333333 2.517333333333333 0 0 0 -0.9933333333333333 1.0486666666666666l-0.06999999999999999 0.14666666666666667c-0.12466666666666666 0.2813333333333333 -0.3413333333333333 0.5026666666666666 -0.6719999999999999 0.5026666666666666 -0.30133333333333334 0 -0.5073333333333333 -0.18266666666666667 -0.6359999999999999 -0.42733333333333334l-0.036 -0.07533333333333334a2.554 2.554 0 0 0 -0.9226666666666665 -1.1093333333333333l-0.1373333333333333 -0.08399999999999999c-0.23933333333333331 -0.13466666666666666 -0.414 -0.3506666666666667 -0.414 -0.6379999999999999 0 -0.2553333333333333 0.13866666666666666 -0.45333333333333337 0.33666666666666667 -0.5886666666666667l0.07733333333333334 -0.047999999999999994a2.5066666666666664 2.5066666666666664 0 0 0 0.988 -1.0433333333333332l0.07533333333333334 -0.15733333333333333C2.786666666666666 7.884 3.0066666666666664 7.666666666666666 3.333333333333333 7.666666666666666Zm3.724 -1.5519999999999998 -0.9426666666666665 0.9426666666666665 5.1853333333333325 5.1853333333333325 0.9426666666666665 -0.9426666666666665 -5.1853333333333325 -5.1853333333333325Zm4.563333333333333 -1.18c0.15866666666666665 -0.32066666666666666 0.5333333333333333 -0.34199999999999997 0.7213333333333334 -0.06466666666666666l0.03733333333333333 0.064c0.144 0.29 0.3826666666666666 0.536 0.6953333333333332 0.6933333333333334 0.3293333333333333 0.16399999999999998 0.33399999999999996 0.58 0.0026666666666666666 0.744a1.5633333333333335 1.5633333333333335 0 0 0 -0.6359999999999999 0.5813333333333333l-0.06 0.10933333333333334c-0.15999999999999998 0.32399999999999995 -0.536 0.3453333333333333 -0.7233333333333333 0.06799999999999999l-0.03733333333333333 -0.064c-0.12666666666666665 -0.2533333333333333 -0.32466666666666666 -0.474 -0.5813333333333333 -0.6299999999999999l-0.11333333333333334 -0.06266666666666666c-0.31066666666666665 -0.15466666666666667 -0.3313333333333333 -0.5266666666666666 -0.06466666666666666 -0.7086666666666666l0.06133333333333333 -0.036c0.27599999999999997 -0.13866666666666666 0.49266666666666664 -0.344 0.6379999999999999 -0.5853333333333333l0.06 -0.10933333333333334ZM4.700666666666667 3.7566666666666664 3.7566666666666664 4.699999999999999l1.414 1.4146666666666665 0.9433333333333334 -0.9433333333333334L4.699999999999999 3.7573333333333334ZM9 1.3333333333333333c0.19599999999999998 0 0.33999999999999997 0.11133333333333334 0.436 0.266l0.039999999999999994 0.07333333333333333c0.15866666666666665 0.31799999999999995 0.412 0.596 0.74 0.7913333333333333l0.13066666666666665 0.07133333333333333c0.18333333333333335 0.09133333333333334 0.31999999999999995 0.24866666666666665 0.31999999999999995 0.4646666666666666 0 0.18866666666666665 -0.10466666666666666 0.3333333333333333 -0.2533333333333333 0.42666666666666664l-0.06999999999999999 0.039999999999999994c-0.3466666666666667 0.17333333333333334 -0.6213333333333333 0.436 -0.8033333333333333 0.7433333333333333l-0.06666666666666667 0.122c-0.09333333333333334 0.1893333333333333 -0.24933333333333332 0.33466666666666667 -0.4733333333333333 0.33466666666666667 -0.19599999999999998 0 -0.33999999999999997 -0.11133333333333334 -0.436 -0.266l-0.039999999999999994 -0.07333333333333333a1.9213333333333333 1.9213333333333333 0 0 0 -0.74 -0.7913333333333333l-0.13066666666666665 -0.07133333333333333c-0.18333333333333335 -0.09133333333333334 -0.31999999999999995 -0.24933333333333332 -0.31999999999999995 -0.46533333333333327 0 -0.18799999999999997 0.10466666666666666 -0.33266666666666667 0.2533333333333333 -0.42666666666666664l0.06999999999999999 -0.03866666666666667c0.3466666666666667 -0.17466666666666666 0.6213333333333333 -0.436 0.8033333333333333 -0.744l0.06666666666666667 -0.122c0.09333333333333334 -0.1893333333333333 0.24933333333333332 -0.33466666666666667 0.4733333333333333 -0.33466666666666667Z" stroke-width="0.6667"></path>
  </g>
</svg>