<svg xmlns="http://www.w3.org/2000/svg" viewBox="0 0 16 16" id="Chat-3-Fill--Streamline-Mingcute-Fill" height="16" width="16">
  <desc>
    Chat 3 Fill Streamline Icon: https://streamlinehq.com
  </desc>
  <g fill="none" fill-rule="nonzero">
    <path d="M16 0v16H0V0h16ZM8.395333333333333 15.505333333333333l-0.007333333333333332 0.0013333333333333333 -0.047333333333333324 0.023333333333333334 -0.013333333333333332 0.0026666666666666666 -0.009333333333333332 -0.0026666666666666666 -0.047333333333333324 -0.023333333333333334c-0.006666666666666666 -0.0026666666666666666 -0.012666666666666666 -0.0006666666666666666 -0.016 0.003333333333333333l-0.0026666666666666666 0.006666666666666666 -0.011333333333333334 0.2853333333333333 0.003333333333333333 0.013333333333333332 0.006666666666666666 0.008666666666666666 0.06933333333333333 0.049333333333333326 0.009999999999999998 0.0026666666666666666 0.008 -0.0026666666666666666 0.06933333333333333 -0.049333333333333326 0.008 -0.010666666666666666 0.0026666666666666666 -0.011333333333333334 -0.011333333333333334 -0.2846666666666666c-0.0013333333333333333 -0.006666666666666666 -0.005999999999999999 -0.011333333333333334 -0.011333333333333334 -0.011999999999999999Zm0.17666666666666667 -0.07533333333333334 -0.008666666666666666 0.0013333333333333333 -0.12333333333333332 0.062 -0.006666666666666666 0.006666666666666666 -0.002 0.007333333333333332 0.011999999999999999 0.2866666666666666 0.003333333333333333 0.008 0.005333333333333333 0.004666666666666666 0.134 0.062c0.008 0.0026666666666666666 0.015333333333333332 0 0.019333333333333334 -0.005333333333333333l0.0026666666666666666 -0.009333333333333332 -0.02266666666666667 -0.4093333333333333c-0.002 -0.008 -0.006666666666666666 -0.013333333333333332 -0.013333333333333332 -0.014666666666666665Zm-0.4766666666666666 0.0013333333333333333a0.015333333333333332 0.015333333333333332 0 0 0 -0.018 0.004l-0.004 0.009333333333333332 -0.02266666666666667 0.4093333333333333c0 0.008 0.004666666666666666 0.013333333333333332 0.011333333333333334 0.016l0.009999999999999998 -0.0013333333333333333 0.134 -0.062 0.006666666666666666 -0.005333333333333333 0.0026666666666666666 -0.007333333333333332 0.011333333333333334 -0.2866666666666666 -0.002 -0.008 -0.006666666666666666 -0.006666666666666666 -0.12266666666666666 -0.06133333333333333Z" stroke-width="0.6667"></path>
    <path fill="currentColor" d="M1.3333333333333333 7.666666666666666C1.3333333333333333 4.4286666666666665 4.437333333333333 2 8 2s6.666666666666666 2.4286666666666665 6.666666666666666 5.666666666666666S11.562666666666667 13.333333333333332 8 13.333333333333332c-0.43533333333333335 0 -0.8613333333333333 -0.03533333333333333 -1.274 -0.10333333333333333 -0.062 0.048666666666666664 -0.16866666666666666 0.13666666666666666 -0.3 0.2293333333333333C6.046666666666667 13.726666666666667 5.499333333333333 14 4.666666666666666 14a0.6666666666666666 0.6666666666666666 0 0 1 -0.6666666666666666 -0.6666666666666666c0 -0.3666666666666667 0.09533333333333333 -0.8226666666666667 -0.06266666666666666 -1.1706666666666665C2.3846666666666665 11.148666666666665 1.3333333333333333 9.532 1.3333333333333333 7.666666666666666Z" stroke-width="0.6667"></path>
  </g>
</svg>