<svg xmlns="http://www.w3.org/2000/svg" viewBox="0 0 16 16" height="16" width="16">
  <g fill="none" fill-rule="nonzero">
    <path d="M16 0v16H0V0h16ZM8.395333333333333 15.505333333333333l-0.007333333333333332 0.0013333333333333333 -0.047333333333333324 0.023333333333333334 -0.013333333333333332 0.0026666666666666666 -0.009333333333333332 -0.0026666666666666666 -0.047333333333333324 -0.023333333333333334c-0.006666666666666666 -0.0026666666666666666 -0.012666666666666666 -0.0006666666666666666 -0.016 0.003333333333333333l-0.0026666666666666666 0.006666666666666666 -0.011333333333333334 0.2853333333333333 0.003333333333333333 0.013333333333333332 0.006666666666666666 0.008666666666666666 0.06933333333333333 0.049333333333333326 0.009999999999999998 0.0026666666666666666 0.008 -0.0026666666666666666 0.06933333333333333 -0.049333333333333326 0.008 -0.010666666666666666 0.0026666666666666666 -0.011333333333333334 -0.011333333333333334 -0.2846666666666666c-0.0013333333333333333 -0.006666666666666666 -0.005999999999999999 -0.011333333333333334 -0.011333333333333334 -0.011999999999999999Zm0.17666666666666667 -0.07533333333333334 -0.008666666666666666 0.0013333333333333333 -0.12333333333333332 0.062 -0.006666666666666666 0.006666666666666666 -0.002 0.007333333333333332 0.011999999999999999 0.2866666666666666 0.003333333333333333 0.008 0.005333333333333333 0.004666666666666666 0.134 0.062c0.008 0.0026666666666666666 0.015333333333333332 0 0.019333333333333334 -0.005333333333333333l0.0026666666666666666 -0.009333333333333332 -0.02266666666666667 -0.4093333333333333c-0.002 -0.008 -0.006666666666666666 -0.013333333333333332 -0.013333333333333332 -0.014666666666666665Zm-0.4766666666666666 0.0013333333333333333a0.015333333333333332 0.015333333333333332 0 0 0 -0.018 0.004l-0.004 0.009333333333333332 -0.02266666666666667 0.4093333333333333c0 0.008 0.004666666666666666 0.013333333333333332 0.011333333333333334 0.016l0.009999999999999998 -0.0013333333333333333 0.134 -0.062 0.006666666666666666 -0.005333333333333333 0.0026666666666666666 -0.007333333333333332 0.011333333333333334 -0.2866666666666666 -0.002 -0.008 -0.006666666666666666 -0.006666666666666666 -0.12266666666666666 -0.06133333333333333Z"></path>
    <path fill="currentColor" d="M8 1.3333333333333333c3.6819999999999995 0 6.666666666666666 2.9846666666666666 6.666666666666666 6.666666666666666s-2.9846666666666666 6.666666666666666 -6.666666666666666 6.666666666666666S1.3333333333333333 11.681999999999999 1.3333333333333333 8 4.318 1.3333333333333333 8 1.3333333333333333Zm2.3566666666666665 4.254 -3.3 3.3 -1.4133333333333333 -1.414a0.6666666666666666 0.6666666666666666 0 0 0 -0.9433333333333334 0.9426666666666665l1.8386666666666667 1.8386666666666667a0.7333333333333334 0.7333333333333334 0 0 0 1.0373333333333332 0l3.724 -3.724a0.6666666666666666 0.6666666666666666 0 0 0 -0.9433333333333334 -0.9433333333333334Z"></path>
  </g>
</svg>
