<svg fill="currentColor" xmlns="http://www.w3.org/2000/svg" viewBox="0 0 16 16" id="Pencil-2-Fill--Streamline-Mingcute-Fill" height="16" width="16">
  <desc>
    Pencil 2 Fill Streamline Icon: https://streamlinehq.com
  </desc>
  <g fill="none" fill-rule="nonzero">
    <path d="M16 0v16H0V0h16ZM8.395333333333333 15.505333333333333l-0.007333333333333332 0.0013333333333333333 -0.047333333333333324 0.023333333333333334 -0.013333333333333332 0.0026666666666666666 -0.009333333333333332 -0.0026666666666666666 -0.047333333333333324 -0.023333333333333334c-0.006666666666666666 -0.0026666666666666666 -0.012666666666666666 -0.0006666666666666666 -0.016 0.003333333333333333l-0.0026666666666666666 0.006666666666666666 -0.011333333333333334 0.2853333333333333 0.003333333333333333 0.013333333333333332 0.006666666666666666 0.008666666666666666 0.06933333333333333 0.049333333333333326 0.009999999999999998 0.0026666666666666666 0.008 -0.0026666666666666666 0.06933333333333333 -0.049333333333333326 0.008 -0.010666666666666666 0.0026666666666666666 -0.011333333333333334 -0.011333333333333334 -0.2846666666666666c-0.0013333333333333333 -0.006666666666666666 -0.005999999999999999 -0.011333333333333334 -0.011333333333333334 -0.011999999999999999Zm0.17666666666666667 -0.07533333333333334 -0.008666666666666666 0.0013333333333333333 -0.12333333333333332 0.062 -0.006666666666666666 0.006666666666666666 -0.002 0.007333333333333332 0.011999999999999999 0.2866666666666666 0.003333333333333333 0.008 0.005333333333333333 0.004666666666666666 0.134 0.062c0.008 0.0026666666666666666 0.015333333333333332 0 0.019333333333333334 -0.005333333333333333l0.0026666666666666666 -0.009333333333333332 -0.02266666666666667 -0.4093333333333333c-0.002 -0.008 -0.006666666666666666 -0.013333333333333332 -0.013333333333333332 -0.014666666666666665Zm-0.4766666666666666 0.0013333333333333333a0.015333333333333332 0.015333333333333332 0 0 0 -0.018 0.004l-0.004 0.009333333333333332 -0.02266666666666667 0.4093333333333333c0 0.008 0.004666666666666666 0.013333333333333332 0.011333333333333334 0.016l0.009999999999999998 -0.0013333333333333333 0.134 -0.062 0.006666666666666666 -0.005333333333333333 0.0026666666666666666 -0.007333333333333332 0.011333333333333334 -0.2866666666666666 -0.002 -0.008 -0.006666666666666666 -0.006666666666666666 -0.12266666666666666 -0.06133333333333333Z" stroke-width="0.6667"></path>
    <path fill="currentColor" d="M12.666666666666666 12.666666666666666a0.6666666666666666 0.6666666666666666 0 0 1 0.078 1.3286666666666667L12.666666666666666 14h-4.666666666666666a0.6666666666666666 0.6666666666666666 0 0 1 -0.078 -1.3286666666666667L8 12.666666666666666h4.666666666666666ZM10.730666666666666 2.912a1.6666666666666665 1.6666666666666665 0 0 1 2.4379999999999997 2.2699999999999996l-0.08133333333333333 0.08666666666666667L5.823333333333332 12.533333333333333a1 1 0 0 1 -0.21333333333333332 0.16266666666666665l-0.07999999999999999 0.039999999999999994 -2.5359999999999996 1.1533333333333333c-0.5386666666666666 0.24466666666666664 -1.0919999999999999 -0.27799999999999997 -0.9099999999999999 -0.8166666666666667l0.026666666666666665 -0.06666666666666667 1.1533333333333333 -2.5366666666666666a1 1 0 0 1 0.142 -0.22666666666666668l0.06 -0.06666666666666667L10.731333333333334 2.912Z" stroke-width="0.6667"></path>
  </g>
</svg>