<svg fill="currentColor" xmlns="http://www.w3.org/2000/svg" viewBox="0 0 16 16" id="User-Follow-2-Fill--Streamline-Mingcute-Fill" height="16" width="16">
  <desc>
    User Follow 2 Fill Streamline Icon: https://streamlinehq.com
  </desc>
  <g fill="none" fill-rule="evenodd">
    <path d="M16 0v16H0V0h16ZM8.395999999999999 15.505333333333333l-0.008 0.0013333333333333333 -0.047333333333333324 0.023333333333333334 -0.013333333333333332 0.0026666666666666666 -0.009333333333333332 -0.0026666666666666666 -0.047333333333333324 -0.023999999999999997c-0.006666666666666666 -0.002 -0.012666666666666666 0 -0.016 0.004l-0.0026666666666666666 0.006666666666666666 -0.011333333333333334 0.2853333333333333 0.003333333333333333 0.013333333333333332 0.006666666666666666 0.008666666666666666 0.06933333333333333 0.049333333333333326 0.009999999999999998 0.0026666666666666666 0.008 -0.0026666666666666666 0.06933333333333333 -0.049333333333333326 0.008 -0.010666666666666666 0.0026666666666666666 -0.011333333333333334 -0.011333333333333334 -0.2846666666666666c-0.0013333333333333333 -0.006666666666666666 -0.005999999999999999 -0.011333333333333334 -0.010666666666666666 -0.011999999999999999Zm0.176 -0.07533333333333334 -0.009333333333333332 0.0013333333333333333 -0.12266666666666666 0.062 -0.006666666666666666 0.006666666666666666 -0.002 0.007333333333333332 0.011999999999999999 0.2866666666666666 0.003333333333333333 0.008 0.005333333333333333 0.005333333333333333 0.134 0.06133333333333333c0.008 0.0026666666666666666 0.015333333333333332 0 0.019333333333333334 -0.005333333333333333l0.0026666666666666666 -0.009333333333333332 -0.02266666666666667 -0.4093333333333333c-0.002 -0.008 -0.006666666666666666 -0.013333333333333332 -0.013333333333333332 -0.014666666666666665Zm-0.4766666666666666 0.0013333333333333333a0.015333333333333332 0.015333333333333332 0 0 0 -0.018 0.004l-0.004 0.009333333333333332 -0.02266666666666667 0.4093333333333333c0 0.008 0.004666666666666666 0.013333333333333332 0.011333333333333334 0.016l0.009999999999999998 -0.0013333333333333333 0.134 -0.062 0.006666666666666666 -0.005333333333333333 0.002 -0.007333333333333332 0.011999999999999999 -0.2866666666666666 -0.002 -0.008 -0.006666666666666666 -0.006666666666666666 -0.12266666666666666 -0.06133333333333333Z" stroke-width="0.6667"></path>
    <path fill="currentColor" d="M7.333333333333333 1.3333333333333333a3.333333333333333 3.333333333333333 0 1 0 0 6.666666666666666 3.333333333333333 3.333333333333333 0 0 0 0 -6.666666666666666Zm0 7.333333333333333c-1.5966666666666667 0 -3.05 0.4626666666666666 -4.118666666666666 1.1146666666666665 -0.5333333333333333 0.3253333333333333 -0.9893333333333333 0.7093333333333334 -1.3186666666666667 1.1266666666666665C1.572 11.317333333333332 1.3333333333333333 11.808666666666667 1.3333333333333333 12.333333333333332c0 0.5633333333333332 0.27399999999999997 1.0073333333333332 0.6686666666666665 1.3239999999999998 0.37333333333333335 0.3 0.8659999999999999 0.49866666666666665 1.3893333333333333 0.6373333333333333C4.443333333333333 14.572666666666667 5.847333333333333 14.666666666666666 7.333333333333333 14.666666666666666c0.15333333333333332 0 0.30666666666666664 -0.0013333333333333333 0.45666666666666667 -0.003333333333333333a0.6666666666666666 0.6666666666666666 0 0 0 0.5933333333333333 -0.952A3.9819999999999998 3.9819999999999998 0 0 1 8 12c0 -0.8346666666666667 0.2553333333333333 -1.6079999999999999 0.6913333333333332 -2.248666666666667a0.6666666666666666 0.6666666666666666 0 0 0 -0.48 -1.0379999999999998c-0.2866666666666666 -0.030666666666666665 -0.58 -0.04666666666666667 -0.8779999999999999 -0.04666666666666667Zm7.1386666666666665 2.0453333333333332a0.6666666666666666 0.6666666666666666 0 0 0 -0.9426666666666665 -0.9426666666666665l-2.1213333333333333 2.1213333333333333 -0.9426666666666665 -0.9426666666666665a0.6666666666666666 0.6666666666666666 0 0 0 -0.9426666666666665 0.9426666666666665l1.3666666666666665 1.3666666666666665a0.7333333333333334 0.7333333333333334 0 0 0 1.0373333333333332 0l2.5453333333333332 -2.5453333333333332Z" stroke-width="0.6667"></path>
  </g>
</svg>