<svg xmlns="http://www.w3.org/2000/svg" viewBox="0 0 16 16" id="User-Add-2-Fill--Streamline-Mingcute-Fill" height="16" width="16">
  <desc>
    User Add 2 Fill Streamline Icon: https://streamlinehq.com
  </desc>
  <g fill="none" fill-rule="nonzero">
    <path d="M16 0v16H0V0h16ZM8.395999999999999 15.505333333333333l-0.008 0.0013333333333333333 -0.047333333333333324 0.023333333333333334 -0.013333333333333332 0.0026666666666666666 -0.009333333333333332 -0.0026666666666666666 -0.047333333333333324 -0.023999999999999997c-0.006666666666666666 -0.002 -0.012666666666666666 0 -0.016 0.004l-0.0026666666666666666 0.006666666666666666 -0.011333333333333334 0.2853333333333333 0.003333333333333333 0.013333333333333332 0.006666666666666666 0.008666666666666666 0.06933333333333333 0.049333333333333326 0.009999999999999998 0.0026666666666666666 0.008 -0.0026666666666666666 0.06933333333333333 -0.049333333333333326 0.008 -0.010666666666666666 0.0026666666666666666 -0.011333333333333334 -0.011333333333333334 -0.2846666666666666c-0.0013333333333333333 -0.006666666666666666 -0.005999999999999999 -0.011333333333333334 -0.010666666666666666 -0.011999999999999999Zm0.176 -0.07533333333333334 -0.009333333333333332 0.0013333333333333333 -0.12266666666666666 0.062 -0.006666666666666666 0.006666666666666666 -0.002 0.007333333333333332 0.011999999999999999 0.2866666666666666 0.003333333333333333 0.008 0.005333333333333333 0.005333333333333333 0.134 0.06133333333333333c0.008 0.0026666666666666666 0.015333333333333332 0 0.019333333333333334 -0.005333333333333333l0.0026666666666666666 -0.009333333333333332 -0.02266666666666667 -0.4093333333333333c-0.002 -0.008 -0.006666666666666666 -0.013333333333333332 -0.013333333333333332 -0.014666666666666665Zm-0.4766666666666666 0.0013333333333333333a0.015333333333333332 0.015333333333333332 0 0 0 -0.018 0.004l-0.004 0.009333333333333332 -0.02266666666666667 0.4093333333333333c0 0.008 0.004666666666666666 0.013333333333333332 0.011333333333333334 0.016l0.009999999999999998 -0.0013333333333333333 0.134 -0.062 0.006666666666666666 -0.005333333333333333 0.002 -0.007333333333333332 0.011999999999999999 -0.2866666666666666 -0.002 -0.008 -0.006666666666666666 -0.006666666666666666 -0.12266666666666666 -0.06133333333333333Z" stroke-width="0.6667"></path>
    <path fill="currentColor" d="M4 4.666666666666666a3.333333333333333 3.333333333333333 0 1 1 6.666666666666666 0A3.333333333333333 3.333333333333333 0 0 1 4 4.666666666666666Zm-0.7853333333333332 5.1146666666666665C4.283333333333333 9.129333333333333 5.736666666666666 8.666666666666666 7.333333333333333 8.666666666666666c0.298 0 0.5913333333333333 0.016 0.8773333333333333 0.04666666666666667a0.6666666666666666 0.6666666666666666 0 0 1 0.48 1.0379999999999998A3.9786666666666664 3.9786666666666664 0 0 0 8 12c0 0.6133333333333333 0.13799999999999998 1.1933333333333334 0.3833333333333333 1.7113333333333334a0.6666666666666666 0.6666666666666666 0 0 1 -0.5933333333333333 0.952L7.333333333333333 14.666666666666666c-1.486 0 -2.8899999999999997 -0.09333333333333334 -3.942 -0.372 -0.5233333333333333 -0.13866666666666666 -1.016 -0.3373333333333333 -1.3893333333333333 -0.6373333333333333C1.6066666666666667 13.34 1.3333333333333333 12.896666666666665 1.3333333333333333 12.333333333333332c0 -0.5246666666666666 0.23866666666666664 -1.0153333333333332 0.5626666666666666 -1.4259999999999997 0.3293333333333333 -0.41666666666666663 0.7846666666666666 -0.7999999999999999 1.3186666666666667 -1.1266666666666665ZM12 9.333333333333332a0.6666666666666666 0.6666666666666666 0 0 1 0.6666666666666666 0.6666666666666666v1.3333333333333333h1.3333333333333333a0.6666666666666666 0.6666666666666666 0 1 1 0 1.3333333333333333h-1.3333333333333333v1.3333333333333333a0.6666666666666666 0.6666666666666666 0 1 1 -1.3333333333333333 0v-1.3333333333333333h-1.3333333333333333a0.6666666666666666 0.6666666666666666 0 1 1 0 -1.3333333333333333h1.3333333333333333v-1.3333333333333333a0.6666666666666666 0.6666666666666666 0 0 1 0.6666666666666666 -0.6666666666666666Z" stroke-width="0.6667"></path>
  </g>
</svg>