<svg xmlns="http://www.w3.org/2000/svg" viewBox="0 0 16 16" id="Fullscreen-2-Line--Streamline-Mingcute" height="16" width="16">
  <desc>
    Fullscreen 2 Line Streamline Icon: https://streamlinehq.com
  </desc>
  <g fill="none" fill-rule="nonzero">
    <path d="M16 0v16H0V0h16ZM8.395333333333333 15.505333333333333l-0.007333333333333332 0.0013333333333333333 -0.047333333333333324 0.023333333333333334 -0.013333333333333332 0.0026666666666666666 -0.009333333333333332 -0.0026666666666666666 -0.047333333333333324 -0.023333333333333334c-0.006666666666666666 -0.0026666666666666666 -0.012666666666666666 -0.0006666666666666666 -0.016 0.003333333333333333l-0.0026666666666666666 0.006666666666666666 -0.011333333333333334 0.2853333333333333 0.003333333333333333 0.013333333333333332 0.006666666666666666 0.008666666666666666 0.06933333333333333 0.049333333333333326 0.009999999999999998 0.0026666666666666666 0.008 -0.0026666666666666666 0.06933333333333333 -0.049333333333333326 0.008 -0.010666666666666666 0.0026666666666666666 -0.011333333333333334 -0.011333333333333334 -0.2846666666666666c-0.0013333333333333333 -0.006666666666666666 -0.005999999999999999 -0.011333333333333334 -0.011333333333333334 -0.011999999999999999Zm0.17666666666666667 -0.07533333333333334 -0.008666666666666666 0.0013333333333333333 -0.12333333333333332 0.062 -0.006666666666666666 0.006666666666666666 -0.002 0.007333333333333332 0.011999999999999999 0.2866666666666666 0.003333333333333333 0.008 0.005333333333333333 0.004666666666666666 0.134 0.062c0.008 0.0026666666666666666 0.015333333333333332 0 0.019333333333333334 -0.005333333333333333l0.0026666666666666666 -0.009333333333333332 -0.02266666666666667 -0.4093333333333333c-0.002 -0.008 -0.006666666666666666 -0.013333333333333332 -0.013333333333333332 -0.014666666666666665Zm-0.4766666666666666 0.0013333333333333333a0.015333333333333332 0.015333333333333332 0 0 0 -0.018 0.004l-0.004 0.009333333333333332 -0.02266666666666667 0.4093333333333333c0 0.008 0.004666666666666666 0.013333333333333332 0.011333333333333334 0.016l0.009999999999999998 -0.0013333333333333333 0.134 -0.062 0.006666666666666666 -0.005333333333333333 0.0026666666666666666 -0.007333333333333332 0.011333333333333334 -0.2866666666666666 -0.002 -0.008 -0.006666666666666666 -0.006666666666666666 -0.12266666666666666 -0.06133333333333333Z" stroke-width="0.6667"></path>
    <path fill="currentColor" d="M6.528666666666666 8.528666666666666a0.6666666666666666 0.6666666666666666 0 0 1 0.998 0.88l-0.05533333333333333 0.06266666666666666L4.276 12.666666666666666H6a0.6666666666666666 0.6666666666666666 0 0 1 0.078 1.3286666666666667L6 14H2.6666666666666665a0.6666666666666666 0.6666666666666666 0 0 1 -0.6619999999999999 -0.5886666666666667L2 13.333333333333332v-3.333333333333333a0.6666666666666666 0.6666666666666666 0 0 1 1.3286666666666667 -0.078L3.333333333333333 10v1.7239999999999998l3.195333333333333 -3.195333333333333ZM13.333333333333332 2a0.6666666666666666 0.6666666666666666 0 0 1 0.6619999999999999 0.5886666666666667L14 2.6666666666666665v3.333333333333333a0.6666666666666666 0.6666666666666666 0 0 1 -1.3286666666666667 0.078L12.666666666666666 6V4.276l-3.195333333333333 3.195333333333333a0.6666666666666666 0.6666666666666666 0 0 1 -0.998 -0.88l0.05533333333333333 -0.06266666666666666L11.723999999999998 3.333333333333333H10a0.6666666666666666 0.6666666666666666 0 0 1 -0.078 -1.3286666666666667L10 2h3.333333333333333Z" stroke-width="0.6667"></path>
  </g>
</svg>