<svg xmlns="http://www.w3.org/2000/svg" viewBox="0 0 16 16" id="Layer-Fill--Streamline-Mingcute-Fill" height="16" width="16">
  <desc>
    Layer Fill Streamline Icon: https://streamlinehq.com
  </desc>
  <g fill="none" fill-rule="nonzero">
    <path d="M16 0v16H0V0h16ZM8.395999999999999 15.505333333333333l-0.008 0.0013333333333333333 -0.047333333333333324 0.023333333333333334 -0.013333333333333332 0.0026666666666666666 -0.009333333333333332 -0.0026666666666666666 -0.047333333333333324 -0.023999999999999997c-0.006666666666666666 -0.002 -0.012666666666666666 0 -0.016 0.004l-0.0026666666666666666 0.006666666666666666 -0.011333333333333334 0.2853333333333333 0.003333333333333333 0.013333333333333332 0.006666666666666666 0.008666666666666666 0.06933333333333333 0.049333333333333326 0.009999999999999998 0.0026666666666666666 0.008 -0.0026666666666666666 0.06933333333333333 -0.049333333333333326 0.008 -0.010666666666666666 0.0026666666666666666 -0.011333333333333334 -0.011333333333333334 -0.2846666666666666c-0.0013333333333333333 -0.006666666666666666 -0.005999999999999999 -0.011333333333333334 -0.010666666666666666 -0.011999999999999999Zm0.176 -0.07533333333333334 -0.009333333333333332 0.0013333333333333333 -0.12266666666666666 0.062 -0.006666666666666666 0.006666666666666666 -0.002 0.007333333333333332 0.011999999999999999 0.2866666666666666 0.003333333333333333 0.008 0.005333333333333333 0.005333333333333333 0.134 0.06133333333333333c0.008 0.0026666666666666666 0.015333333333333332 0 0.019333333333333334 -0.005333333333333333l0.0026666666666666666 -0.009333333333333332 -0.02266666666666667 -0.4093333333333333c-0.002 -0.008 -0.006666666666666666 -0.013333333333333332 -0.013333333333333332 -0.014666666666666665Zm-0.4766666666666666 0.0013333333333333333a0.015333333333333332 0.015333333333333332 0 0 0 -0.018 0.004l-0.004 0.009333333333333332 -0.02266666666666667 0.4093333333333333c0 0.008 0.004666666666666666 0.013333333333333332 0.011333333333333334 0.016l0.009999999999999998 -0.0013333333333333333 0.134 -0.062 0.006666666666666666 -0.005333333333333333 0.002 -0.007333333333333332 0.011999999999999999 -0.2866666666666666 -0.002 -0.008 -0.006666666666666666 -0.006666666666666666 -0.12266666666666666 -0.06133333333333333Z" stroke-width="0.6667"></path>
    <path fill="currentColor" d="m3.703333333333333 3.445333333333333 3.7026666666666666 2.4686666666666666A1.3333333333333333 1.3333333333333333 0 0 1 8 7.023333333333333V14a0.6666666666666666 0.6666666666666666 0 0 1 -1.0366666666666666 0.5546666666666666L3.2606666666666664 12.086666666666666A1.3333333333333333 1.3333333333333333 0 0 1 2.6666666666666665 10.976666666666667V4a0.6666666666666666 0.6666666666666666 0 0 1 1.0366666666666666 -0.5546666666666666Zm1.9819999999999998 -1.3666666666666665a0.6666666666666666 0.6666666666666666 0 0 1 0.6846666666666665 0.03333333333333333l3.7026666666666666 2.4686666666666666A1.3333333333333333 1.3333333333333333 0 0 1 10.666666666666666 5.6899999999999995V12.666666666666666a0.6666666666666666 0.6666666666666666 0 0 1 -1.0366666666666666 0.5546666666666666l-0.6299999999999999 -0.42v-5.778a2.333333333333333 2.333333333333333 0 0 0 -1.0393333333333332 -1.9413333333333331L5.333333333333333 3.33V2.6666666666666665a0.6666666666666666 0.6666666666666666 0 0 1 0.352 -0.588Zm3.3513333333333333 -1.2999999999999998 3.7026666666666666 2.4686666666666666A1.3333333333333333 1.3333333333333333 0 0 1 13.333333333333332 4.3566666666666665V11.333333333333332a0.6666666666666666 0.6666666666666666 0 0 1 -1.0366666666666666 0.5546666666666666l-0.6299999999999999 -0.42V5.6899999999999995a2.333333333333333 2.333333333333333 0 0 0 -1.0393333333333332 -1.9413333333333331L8 1.9966666666666666V1.3333333333333333a0.6666666666666666 0.6666666666666666 0 0 1 1.0366666666666666 -0.5546666666666666Z" stroke-width="0.6667"></path>
  </g>
</svg>