<svg xmlns="http://www.w3.org/2000/svg" viewBox="0 0 16 16" width="16" height="16">
  <path fill="currentColor" d="M12.766 1.5519999999999998C13.33 1.242 14 1.659333333333333 14 2.284v11.431999999999999c0 0.6246666666666667 -0.6699999999999999 1.0419999999999998 -1.234 0.732 -0.758 -0.416 -3.002 -1.6280000000000001 -4.345333333333333 -2.162a12.610666666666667 12.610666666666667 0 0 0 -2.5846666666666662 -0.7333333333333334l-0.5153333333333333 2.578a0.6666666666666666 0.6666666666666666 0 1 1 -1.3079999999999998 -0.2613333333333333l0.4953333333333333 -2.4766666666666666a18.913333333333334 18.913333333333334 0 0 0 -0.5393333333333333 -0.03266666666666666C2.8999999999999995 11.310666666666666 2 10.447333333333333 2 9.333333333333332v-2.6666666666666665c0 -1.1139999999999999 0.9 -1.9773333333333334 1.9686666666666666 -2.0266666666666664 0.23666666666666664 -0.011333333333333334 0.46933333333333327 -0.026 0.698 -0.04533333333333334V10.666666666666666h0.02266666666666667a0.6666666666666666 0.6666666666666666 0 0 1 1.1546666666666665 0H6V4.418666666666667a12.661333333333333 12.661333333333333 0 0 0 2.42 -0.7046666666666666c1.3439999999999999 -0.534 3.5879999999999996 -1.7466666666666666 4.346 -2.162Z"/>
</svg>
