<svg fill="currentColor" xmlns="http://www.w3.org/2000/svg" viewBox="0 0 16 16" id="Pin-2-Fill--Streamline-Mingcute-Fill" height="16" width="16">
  <g fill="none" fill-rule="evenodd">
    <path d="M16 0v16H0V0h16ZM8.395333333333333 15.505333333333333l-0.007333333333333332 0.0013333333333333333 -0.047333333333333324 0.023333333333333334 -0.013333333333333332 0.0026666666666666666 -0.009333333333333332 -0.0026666666666666666 -0.047333333333333324 -0.023333333333333334c-0.006666666666666666 -0.0026666666666666666 -0.012666666666666666 -0.0006666666666666666 -0.016 0.003333333333333333l-0.0026666666666666666 0.006666666666666666 -0.011333333333333334 0.2853333333333333 0.003333333333333333 0.013333333333333332 0.006666666666666666 0.008666666666666666 0.06933333333333333 0.049333333333333326 0.009999999999999998 0.0026666666666666666 0.008 -0.0026666666666666666 0.06933333333333333 -0.049333333333333326 0.008 -0.010666666666666666 0.0026666666666666666 -0.011333333333333334 -0.011333333333333334 -0.2846666666666666c-0.0013333333333333333 -0.006666666666666666 -0.005999999999999999 -0.011333333333333334 -0.011333333333333334 -0.011999999999999999Zm0.17666666666666667 -0.07533333333333334 -0.008666666666666666 0.0013333333333333333 -0.12333333333333332 0.062 -0.006666666666666666 0.006666666666666666 -0.002 0.007333333333333332 0.011999999999999999 0.2866666666666666 0.003333333333333333 0.008 0.005333333333333333 0.004666666666666666 0.134 0.062c0.008 0.0026666666666666666 0.015333333333333332 0 0.019333333333333334 -0.005333333333333333l0.0026666666666666666 -0.009333333333333332 -0.02266666666666667 -0.4093333333333333c-0.002 -0.008 -0.006666666666666666 -0.013333333333333332 -0.013333333333333332 -0.014666666666666665Zm-0.4766666666666666 0.0013333333333333333a0.015333333333333332 0.015333333333333332 0 0 0 -0.018 0.004l-0.004 0.009333333333333332 -0.02266666666666667 0.4093333333333333c0 0.008 0.004666666666666666 0.013333333333333332 0.011333333333333334 0.016l0.009999999999999998 -0.0013333333333333333 0.134 -0.062 0.006666666666666666 -0.005333333333333333 0.0026666666666666666 -0.007333333333333332 0.011333333333333334 -0.2866666666666666 -0.002 -0.008 -0.006666666666666666 -0.006666666666666666 -0.12266666666666666 -0.06133333333333333Z" stroke-width="0.6667"></path>
    <path fill="currentColor" d="M5.911333333333333 1.3333333333333333a1.3333333333333333 1.3333333333333333 0 0 0 -1.3199999999999998 1.1446666666666667l-0.3433333333333333 2.4033333333333333a6 6 0 0 1 -1.14 2.752l-0.8786666666666667 1.172c-0.29533333333333334 0.3933333333333333 -0.17666666666666667 1.0166666666666666 0.352 1.2133333333333334 0.4973333333333333 0.18533333333333335 1.8926666666666665 0.5866666666666667 4.752 0.6419999999999999V14.666666666666666a0.6666666666666666 0.6666666666666666 0 0 0 1.3333333333333333 0v-4.006666666666666c2.86 -0.05466666666666667 4.254666666666666 -0.456 4.752 -0.6413333333333333 0.5286666666666666 -0.19666666666666666 0.6466666666666666 -0.82 0.352 -1.2133333333333334l-0.8793333333333333 -1.172a6 6 0 0 1 -1.14 -2.752l-0.3426666666666667 -2.4033333333333333A1.3333333333333333 1.3333333333333333 0 0 0 10.088666666666665 1.3333333333333333H5.911333333333333Z" stroke-width="0.6667"></path>
  </g>
</svg>
