<svg fill="currentColor" xmlns="http://www.w3.org/2000/svg" viewBox="0 0 16 16" id="Play-Fill--Streamline-Mingcute-Fill" height="16" width="16">
  <desc>
    Play Fill Streamline Icon: https://streamlinehq.com
  </desc>
  <g fill="none" fill-rule="evenodd">
    <path d="M16 0v16H0V0h16ZM8.395333333333333 15.505333333333333l-0.007333333333333332 0.0013333333333333333 -0.047333333333333324 0.023333333333333334 -0.013333333333333332 0.0026666666666666666 -0.009333333333333332 -0.0026666666666666666 -0.047333333333333324 -0.023333333333333334c-0.006666666666666666 -0.0026666666666666666 -0.012666666666666666 -0.0006666666666666666 -0.016 0.003333333333333333l-0.0026666666666666666 0.006666666666666666 -0.011333333333333334 0.2853333333333333 0.003333333333333333 0.013333333333333332 0.006666666666666666 0.008666666666666666 0.06933333333333333 0.049333333333333326 0.009999999999999998 0.0026666666666666666 0.008 -0.0026666666666666666 0.06933333333333333 -0.049333333333333326 0.008 -0.010666666666666666 0.0026666666666666666 -0.011333333333333334 -0.011333333333333334 -0.2846666666666666c-0.0013333333333333333 -0.006666666666666666 -0.005999999999999999 -0.011333333333333334 -0.011333333333333334 -0.011999999999999999Zm0.17666666666666667 -0.07533333333333334 -0.008666666666666666 0.0013333333333333333 -0.12333333333333332 0.062 -0.006666666666666666 0.006666666666666666 -0.002 0.007333333333333332 0.011999999999999999 0.2866666666666666 0.003333333333333333 0.008 0.005333333333333333 0.004666666666666666 0.134 0.062c0.008 0.0026666666666666666 0.015333333333333332 0 0.019333333333333334 -0.005333333333333333l0.0026666666666666666 -0.009333333333333332 -0.02266666666666667 -0.4093333333333333c-0.002 -0.008 -0.006666666666666666 -0.013333333333333332 -0.013333333333333332 -0.014666666666666665Zm-0.4766666666666666 0.0013333333333333333a0.015333333333333332 0.015333333333333332 0 0 0 -0.018 0.004l-0.004 0.009333333333333332 -0.02266666666666667 0.4093333333333333c0 0.008 0.004666666666666666 0.013333333333333332 0.011333333333333334 0.016l0.009999999999999998 -0.0013333333333333333 0.134 -0.062 0.006666666666666666 -0.005333333333333333 0.0026666666666666666 -0.007333333333333332 0.011333333333333334 -0.2866666666666666 -0.002 -0.008 -0.006666666666666666 -0.006666666666666666 -0.12266666666666666 -0.06133333333333333Z" stroke-width="0.6667"></path>
    <path fill="currentColor" d="M3.7793333333333328 3.173333333333333a0.9793333333333334 0.9793333333333334 0 0 1 1.3599999999999999 -0.7846666666666666c0.708 0.30266666666666664 2.2946666666666666 1.0219999999999998 4.308 2.1839999999999997 2.014 1.1626666666666665 3.4306666666666663 2.178 4.045999999999999 2.6386666666666665 0.5253333333333333 0.39399999999999996 0.5266666666666666 1.1753333333333331 0.0006666666666666666 1.5706666666666664 -0.6093333333333333 0.458 -2.0086666666666666 1.46 -4.046666666666667 2.6373333333333333 -2.04 1.1773333333333333 -3.6079999999999997 1.888 -4.309333333333333 2.1866666666666665 -0.604 0.258 -1.2799999999999998 -0.13333333333333333 -1.3586666666666665 -0.7846666666666666 -0.092 -0.7613333333333332 -0.264 -2.4899999999999998 -0.264 -4.824666666666666 0 -2.333333333333333 0.17133333333333334 -4.061333333333333 0.264 -4.823333333333333Z" stroke-width="0.6667"></path>
  </g>
</svg>