<svg xmlns="http://www.w3.org/2000/svg" viewBox="0 0 16 16" id="User-3-Fill--Streamline-Mingcute-Fill" height="16" width="16">
  <desc>
    User 3 Fill Streamline Icon: https://streamlinehq.com
  </desc>
  <g fill="none" fill-rule="nonzero">
    <path d="M16 0v16H0V0h16ZM8.395333333333333 15.505333333333333l-0.007333333333333332 0.0013333333333333333 -0.047333333333333324 0.023333333333333334 -0.013333333333333332 0.0026666666666666666 -0.009333333333333332 -0.0026666666666666666 -0.047333333333333324 -0.023333333333333334c-0.006666666666666666 -0.0026666666666666666 -0.012666666666666666 -0.0006666666666666666 -0.016 0.003333333333333333l-0.0026666666666666666 0.006666666666666666 -0.011333333333333334 0.2853333333333333 0.003333333333333333 0.013333333333333332 0.006666666666666666 0.008666666666666666 0.06933333333333333 0.049333333333333326 0.009999999999999998 0.0026666666666666666 0.008 -0.0026666666666666666 0.06933333333333333 -0.049333333333333326 0.008 -0.010666666666666666 0.0026666666666666666 -0.011333333333333334 -0.011333333333333334 -0.2846666666666666c-0.0013333333333333333 -0.006666666666666666 -0.005999999999999999 -0.011333333333333334 -0.011333333333333334 -0.011999999999999999Zm0.17666666666666667 -0.07533333333333334 -0.008666666666666666 0.0013333333333333333 -0.12333333333333332 0.062 -0.006666666666666666 0.006666666666666666 -0.002 0.007333333333333332 0.011999999999999999 0.2866666666666666 0.003333333333333333 0.008 0.005333333333333333 0.004666666666666666 0.134 0.062c0.008 0.0026666666666666666 0.015333333333333332 0 0.019333333333333334 -0.005333333333333333l0.0026666666666666666 -0.009333333333333332 -0.02266666666666667 -0.4093333333333333c-0.002 -0.008 -0.006666666666666666 -0.013333333333333332 -0.013333333333333332 -0.014666666666666665Zm-0.4766666666666666 0.0013333333333333333a0.015333333333333332 0.015333333333333332 0 0 0 -0.018 0.004l-0.004 0.009333333333333332 -0.02266666666666667 0.4093333333333333c0 0.008 0.004666666666666666 0.013333333333333332 0.011333333333333334 0.016l0.009999999999999998 -0.0013333333333333333 0.134 -0.062 0.006666666666666666 -0.005333333333333333 0.0026666666666666666 -0.007333333333333332 0.011333333333333334 -0.2866666666666666 -0.002 -0.008 -0.006666666666666666 -0.006666666666666666 -0.12266666666666666 -0.06133333333333333Z" stroke-width="0.6667"></path>
    <path fill="currentColor" d="M8 8.666666666666666c1.5973333333333333 0 3.05 0.4626666666666666 4.118666666666666 1.1146666666666665 0.5333333333333333 0.3253333333333333 0.9893333333333333 0.7093333333333334 1.3186666666666667 1.1266666666666665 0.32399999999999995 0.41 0.5626666666666666 0.9006666666666666 0.5626666666666666 1.4253333333333331 0 0.5633333333333332 -0.27399999999999997 1.0073333333333332 -0.6686666666666665 1.3239999999999998 -0.37333333333333335 0.3 -0.8659999999999999 0.49866666666666665 -1.3893333333333333 0.6373333333333333 -1.052 0.27799999999999997 -2.456 0.372 -3.942 0.372s-2.8899999999999997 -0.09333333333333334 -3.942 -0.372c-0.5233333333333333 -0.13866666666666666 -1.016 -0.3373333333333333 -1.3893333333333333 -0.6373333333333333C2.2733333333333334 13.34 2 12.896666666666665 2 12.333333333333332c0 -0.5246666666666666 0.23866666666666664 -1.0153333333333332 0.5626666666666666 -1.4259999999999997 0.3293333333333333 -0.41666666666666663 0.7846666666666666 -0.7999999999999999 1.3186666666666667 -1.1266666666666665C4.949999999999999 9.129999999999999 6.403333333333333 8.666666666666666 8 8.666666666666666Zm0 -7.333333333333333a3.333333333333333 3.333333333333333 0 1 1 0 6.666666666666666 3.333333333333333 3.333333333333333 0 0 1 0 -6.666666666666666Z" stroke-width="0.6667"></path>
  </g>
</svg>