<svg xmlns="http://www.w3.org/2000/svg" viewBox="0 0 16 16" id="Refresh-4-Fill--Streamline-Mingcute-Fill" height="16" width="16">
  <desc>
    Refresh 4 Fill Streamline Icon: https://streamlinehq.com
  </desc>
  <g fill="none" fill-rule="nonzero">
    <path d="M16 0v16H0V0h16ZM8.395999999999999 15.505333333333333l-0.008 0.0013333333333333333 -0.047333333333333324 0.023333333333333334 -0.013333333333333332 0.0026666666666666666 -0.009333333333333332 -0.0026666666666666666 -0.047333333333333324 -0.023999999999999997c-0.006666666666666666 -0.002 -0.012666666666666666 0 -0.016 0.004l-0.0026666666666666666 0.006666666666666666 -0.011333333333333334 0.2853333333333333 0.003333333333333333 0.013333333333333332 0.006666666666666666 0.008666666666666666 0.06933333333333333 0.049333333333333326 0.009999999999999998 0.0026666666666666666 0.008 -0.0026666666666666666 0.06933333333333333 -0.049333333333333326 0.008 -0.010666666666666666 0.0026666666666666666 -0.011333333333333334 -0.011333333333333334 -0.2846666666666666c-0.0013333333333333333 -0.006666666666666666 -0.005999999999999999 -0.011333333333333334 -0.010666666666666666 -0.011999999999999999Zm0.176 -0.07533333333333334 -0.009333333333333332 0.0013333333333333333 -0.12266666666666666 0.062 -0.006666666666666666 0.006666666666666666 -0.002 0.007333333333333332 0.011999999999999999 0.2866666666666666 0.003333333333333333 0.008 0.005333333333333333 0.005333333333333333 0.134 0.06133333333333333c0.008 0.0026666666666666666 0.015333333333333332 0 0.019333333333333334 -0.005333333333333333l0.0026666666666666666 -0.009333333333333332 -0.02266666666666667 -0.4093333333333333c-0.002 -0.008 -0.006666666666666666 -0.013333333333333332 -0.013333333333333332 -0.014666666666666665Zm-0.4766666666666666 0.0013333333333333333a0.015333333333333332 0.015333333333333332 0 0 0 -0.018 0.004l-0.004 0.009333333333333332 -0.02266666666666667 0.4093333333333333c0 0.008 0.004666666666666666 0.013333333333333332 0.011333333333333334 0.016l0.009999999999999998 -0.0013333333333333333 0.134 -0.062 0.006666666666666666 -0.005333333333333333 0.002 -0.007333333333333332 0.011999999999999999 -0.2866666666666666 -0.002 -0.008 -0.006666666666666666 -0.006666666666666666 -0.12266666666666666 -0.06133333333333333Z" stroke-width="0.6667"></path>
    <path fill="currentColor" d="M2.6666666666666665 6.333333333333333A1 1 0 0 1 3.6666666666666665 7.333333333333333a3.6666666666666665 3.6666666666666665 0 0 0 3.519333333333333 3.664L7.333333333333333 11h1.588a1 1 0 0 1 1.3766666666666665 -1.4426666666666668l0.076 0.06866666666666665 1.6666666666666665 1.6666666666666665a0.996 0.996 0 0 1 0.2866666666666666 0.5933333333333333l0.005999999999999999 0.10466666666666666v0.018666666666666665c-0.002 0.24 -0.08866666666666667 0.45999999999999996 -0.23199999999999998 0.6313333333333333l-0.06466666666666666 0.06999999999999999 -1.6626666666666667 1.6633333333333333a1 1 0 0 1 -1.5146666666666664 -1.298l0.062 -0.076H7.333333333333333A5.666666666666666 5.666666666666666 0 0 1 1.6666666666666665 7.333333333333333 1 1 0 0 1 2.6666666666666665 6.333333333333333Zm2.96 -4.706666666666666a1 1 0 0 1 1.5133333333333332 1.2973333333333332l-0.06133333333333333 0.076H8.666666666666666a5.666666666666666 5.666666666666666 0 0 1 5.666666666666666 5.666666666666666 1 1 0 1 1 -2 0 3.6666666666666665 3.6666666666666665 0 0 0 -3.519333333333333 -3.664L8.666666666666666 5h-1.588a1 1 0 0 1 -1.3766666666666665 1.4426666666666668L5.626666666666666 6.373333333333333l-1.6666666666666665 -1.6666666666666665a1 1 0 0 1 -0.06866666666666665 -1.3386666666666667l0.06866666666666665 -0.076 1.6666666666666665 -1.6666666666666665Z" stroke-width="0.6667"></path>
  </g>
</svg>