<svg xmlns="http://www.w3.org/2000/svg" viewBox="0 0 16 16" id="Share-Forward-Fill--Streamline-Mingcute-Fill" height="16" width="16">
  <desc>
    Share Forward Fill Streamline Icon: https://streamlinehq.com
  </desc>
  <g fill="none" fill-rule="nonzero">
    <path d="M16 0v16H0V0h16ZM8.395333333333333 15.505333333333333l-0.007333333333333332 0.0013333333333333333 -0.047333333333333324 0.023333333333333334 -0.013333333333333332 0.0026666666666666666 -0.009333333333333332 -0.0026666666666666666 -0.047333333333333324 -0.023333333333333334c-0.006666666666666666 -0.0026666666666666666 -0.012666666666666666 -0.0006666666666666666 -0.016 0.003333333333333333l-0.0026666666666666666 0.006666666666666666 -0.011333333333333334 0.2853333333333333 0.003333333333333333 0.013333333333333332 0.006666666666666666 0.008666666666666666 0.06933333333333333 0.049333333333333326 0.009999999999999998 0.0026666666666666666 0.008 -0.0026666666666666666 0.06933333333333333 -0.049333333333333326 0.008 -0.010666666666666666 0.0026666666666666666 -0.011333333333333334 -0.011333333333333334 -0.2846666666666666c-0.0013333333333333333 -0.006666666666666666 -0.005999999999999999 -0.011333333333333334 -0.011333333333333334 -0.011999999999999999Zm0.17666666666666667 -0.07533333333333334 -0.008666666666666666 0.0013333333333333333 -0.12333333333333332 0.062 -0.006666666666666666 0.006666666666666666 -0.002 0.007333333333333332 0.011999999999999999 0.2866666666666666 0.003333333333333333 0.008 0.005333333333333333 0.004666666666666666 0.134 0.062c0.008 0.0026666666666666666 0.015333333333333332 0 0.019333333333333334 -0.005333333333333333l0.0026666666666666666 -0.009333333333333332 -0.02266666666666667 -0.4093333333333333c-0.002 -0.008 -0.006666666666666666 -0.013333333333333332 -0.013333333333333332 -0.014666666666666665Zm-0.4766666666666666 0.0013333333333333333a0.015333333333333332 0.015333333333333332 0 0 0 -0.018 0.004l-0.004 0.009333333333333332 -0.02266666666666667 0.4093333333333333c0 0.008 0.004666666666666666 0.013333333333333332 0.011333333333333334 0.016l0.009999999999999998 -0.0013333333333333333 0.134 -0.062 0.006666666666666666 -0.005333333333333333 0.0026666666666666666 -0.007333333333333332 0.011333333333333334 -0.2866666666666666 -0.002 -0.008 -0.006666666666666666 -0.006666666666666666 -0.12266666666666666 -0.06133333333333333Z" stroke-width="0.6667"></path>
    <path fill="currentColor" d="m6.742666666666667 2.9939999999999998 -0.13533333333333333 2.096 -0.013333333333333332 0.27799999999999997 -0.06 0.006666666666666666C3.5753333333333335 5.721333333333334 1.3333333333333333 8.244 1.3333333333333333 11.333333333333332c0 0.30466666666666664 0.02266666666666667 0.6066666666666667 0.06799999999999999 0.9046666666666666 0.186 1.23 0.32599999999999996 1.3493333333333333 1.1813333333333333 0.33199999999999996 0.21066666666666667 -0.25066666666666665 0.44533333333333336 -0.474 0.6933333333333334 -0.6866666666666666a5.3053333333333335 5.3053333333333335 0 0 1 3.169333333333333 -1.212l0.15066666666666667 -0.003333333333333333 0.04066666666666666 0.8193333333333334 0.11066666666666666 1.5633333333333335c0.05333333333333333 0.536 0.6173333333333333 0.9019999999999999 1.136 0.6093333333333333 0.23466666666666663 -0.132 0.46333333333333326 -0.2733333333333333 0.6933333333333334 -0.41333333333333333 1.1913333333333331 -0.7453333333333334 2.3066666666666666 -1.6019999999999999 3.393333333333333 -2.492 0.6399999999999999 -0.5333333333333333 1.2 -1.0386666666666666 1.6773333333333333 -1.4986666666666668 0.22 -0.21533333333333332 0.44 -0.43066666666666664 0.6526666666666666 -0.6533333333333333 0.308 -0.32266666666666666 0.33866666666666667 -0.8566666666666666 0.016 -1.1946666666666665 -0.7426666666666667 -0.7766666666666666 -1.792 -1.7493333333333334 -3.098 -2.781333333333333 -1.0586666666666666 -0.828 -2.1533333333333333 -1.6013333333333333 -3.313333333333333 -2.2806666666666664 -0.5579999999999999 -0.31799999999999995 -1.1113333333333333 0.118 -1.162 0.6479999999999999Z" stroke-width="0.6667"></path>
  </g>
</svg>