<svg fill="currentColor" xmlns="http://www.w3.org/2000/svg" viewBox="0 0 16 16" id="Skip-Forward-Fill--Streamline-Mingcute-Fill" height="16" width="16">
  <desc>
    Skip Forward Fill Streamline Icon: https://streamlinehq.com
  </desc>
  <g fill="none" fill-rule="nonzero">
    <path d="M16 0v16H0V0h16ZM8.395333333333333 15.505333333333333l-0.007333333333333332 0.0013333333333333333 -0.047333333333333324 0.023333333333333334 -0.013333333333333332 0.0026666666666666666 -0.009333333333333332 -0.0026666666666666666 -0.047333333333333324 -0.023333333333333334c-0.006666666666666666 -0.0026666666666666666 -0.012666666666666666 -0.0006666666666666666 -0.016 0.003333333333333333l-0.0026666666666666666 0.006666666666666666 -0.011333333333333334 0.2853333333333333 0.003333333333333333 0.013333333333333332 0.006666666666666666 0.008666666666666666 0.06933333333333333 0.049333333333333326 0.009999999999999998 0.0026666666666666666 0.008 -0.0026666666666666666 0.06933333333333333 -0.049333333333333326 0.008 -0.010666666666666666 0.0026666666666666666 -0.011333333333333334 -0.011333333333333334 -0.2846666666666666c-0.0013333333333333333 -0.006666666666666666 -0.005999999999999999 -0.011333333333333334 -0.011333333333333334 -0.011999999999999999Zm0.17666666666666667 -0.07533333333333334 -0.008666666666666666 0.0013333333333333333 -0.12333333333333332 0.062 -0.006666666666666666 0.006666666666666666 -0.002 0.007333333333333332 0.011999999999999999 0.2866666666666666 0.003333333333333333 0.008 0.005333333333333333 0.004666666666666666 0.134 0.062c0.008 0.0026666666666666666 0.015333333333333332 0 0.019333333333333334 -0.005333333333333333l0.0026666666666666666 -0.009333333333333332 -0.02266666666666667 -0.4093333333333333c-0.002 -0.008 -0.006666666666666666 -0.013333333333333332 -0.013333333333333332 -0.014666666666666665Zm-0.4766666666666666 0.0013333333333333333a0.015333333333333332 0.015333333333333332 0 0 0 -0.018 0.004l-0.004 0.009333333333333332 -0.02266666666666667 0.4093333333333333c0 0.008 0.004666666666666666 0.013333333333333332 0.011333333333333334 0.016l0.009999999999999998 -0.0013333333333333333 0.134 -0.062 0.006666666666666666 -0.005333333333333333 0.0026666666666666666 -0.007333333333333332 0.011333333333333334 -0.2866666666666666 -0.002 -0.008 -0.006666666666666666 -0.006666666666666666 -0.12266666666666666 -0.06133333333333333Z" stroke-width="0.6667"></path>
    <path fill="currentColor" d="M2.3793333333333333 3.91A0.888 0.888 0 0 1 3.61 3.1999999999999997l0.43066666666666664 0.18866666666666665 0.3406666666666667 0.15533333333333332 0.39799999999999996 0.18866666666666665 0.45066666666666666 0.22066666666666668 0.32666666666666666 0.16599999999999998 0.5286666666666666 0.27599999999999997 0.37599999999999995 0.20266666666666666 0.39199999999999996 0.21733333333333332 0.4086666666666666 0.23266666666666663 0.422 0.24666666666666665 0.3993333333333333 0.24066666666666664 0.37599999999999995 0.23266666666666663 0.5186666666666666 0.33066666666666666 0.4626666666666666 0.30533333333333335 0.4046666666666666 0.27599999999999997 0.3446666666666667 0.242 0.3606666666666667 0.26266666666666666 0.1373333333333333 0.10266666666666666c0.4733333333333333 0.3566666666666667 0.4733333333333333 1.0626666666666666 0.0006666666666666666 1.42l-0.2866666666666666 0.21266666666666667 -0.182 0.132 -0.44266666666666665 0.31 -0.3966666666666666 0.2693333333333333 -0.29533333333333334 0.19466666666666665 -0.48666666666666664 0.3133333333333333 -0.54 0.3333333333333333 -0.3873333333333333 0.2333333333333333 -0.41 0.24 -0.41333333333333333 0.23466666666666663 -0.3953333333333333 0.22 -0.3773333333333333 0.2033333333333333 -0.3586666666666667 0.18866666666666665 -0.49866666666666665 0.254 -0.44866666666666666 0.22066666666666668 -0.5153333333333333 0.24266666666666664 -0.496 0.22133333333333333 -0.14933333333333332 0.064a0.888 0.888 0 0 1 -1.2293333333333334 -0.71l-0.05333333333333333 -0.46533333333333327 -0.047333333333333324 -0.5113333333333333 -0.03533333333333333 -0.45933333333333326 -0.03333333333333333 -0.52 -0.018666666666666665 -0.37999999999999995 -0.016 -0.4033333333333333 -0.012666666666666666 -0.42666666666666664 -0.009999999999999998 -0.6839999999999999v-0.4766666666666666l0.009999999999999998 -0.6826666666666666 0.019999999999999997 -0.6319999999999999 0.017333333333333333 -0.3913333333333333 0.019999999999999997 -0.3666666666666667 0.034666666666666665 -0.5 0.036 -0.438 0.04666666666666667 -0.4813333333333333 0.041999999999999996 -0.3566666666666667ZM12.666666666666666 3.333333333333333a0.6666666666666666 0.6666666666666666 0 0 1 0.6619999999999999 0.5886666666666667L13.333333333333332 4v8a0.6666666666666666 0.6666666666666666 0 0 1 -0.5886666666666667 0.6619999999999999L12.666666666666666 12.666666666666666h-0.6666666666666666a0.6666666666666666 0.6666666666666666 0 0 1 -0.6619999999999999 -0.5886666666666667L11.333333333333332 12V4a0.6666666666666666 0.6666666666666666 0 0 1 0.5886666666666667 -0.6619999999999999L12 3.333333333333333h0.6666666666666666Z" stroke-width="0.6667"></path>
  </g>
</svg>